<?xml version="1.0" encoding="UTF-8" standalone="no"?>
<!DOCTYPE svg PUBLIC "-//W3C//DTD SVG 1.1//EN" "http://www.w3.org/Graphics/SVG/1.1/DTD/svg11.dtd">
<svg xmlns="http://www.w3.org/2000/svg" version="1.1" viewBox="0.00 0.00 1920.00 175.00">
<path fill="#3e4095" d="
  M 0.00 0.00
  L 20.50 0.00
  Q 44.19 2.57 65.50 6.30
  Q 99.40 12.23 130.76 18.92
  Q 200.04 33.69 268.75 48.20
  Q 375.70 70.78 477.49 86.44
  Q 554.97 98.35 632.98 105.19
  Q 711.70 112.09 782.50 112.58
  Q 837.03 112.95 940.76 112.07
  Q 1043.44 111.19 1145.00 108.20
  Q 1183.37 107.08 1221.75 105.96
  Q 1310.56 103.38 1398.75 103.83
  C 1465.48 104.17 1521.35 104.98 1582.50 107.49
  C 1694.96 112.12 1807.24 118.81 1919.09 126.08
  A 0.87 0.86 -88.6 0 1 1919.90 126.94
  L 1920.00 173.87
  L 1920.00 175.00
  L 0.00 175.00
  L 0.00 0.00
  Z"
/>
</svg>
