<svg width="14" height="14" viewBox="0 0 14 14" fill="none" xmlns="http://www.w3.org/2000/svg">
<g id="icon-add">
<path id="check" d="M11.2153 3.45571L5.05029 9.62071L2.78529 7.35571C2.75915 7.32923 2.72801 7.3082 2.69367 7.29384C2.65934 7.27949 2.6225 7.2721 2.58529 7.2721C2.54807 7.2721 2.51123 7.27949 2.4769 7.29384C2.44257 7.3082 2.41143 7.32923 2.38529 7.35571L1.72229 8.01871C1.6958 8.04485 1.67477 8.07599 1.66042 8.11033C1.64606 8.14466 1.63867 8.1815 1.63867 8.21871C1.63867 8.25593 1.64606 8.29277 1.66042 8.3271C1.67477 8.36143 1.6958 8.39257 1.72229 8.41871L4.85129 11.5437C4.87743 11.5702 4.90857 11.5912 4.9429 11.6056C4.97723 11.6199 5.01407 11.6273 5.05129 11.6273C5.0885 11.6273 5.12534 11.6199 5.15967 11.6056C5.19401 11.5912 5.22515 11.5702 5.25129 11.5437L12.2783 4.51671C12.3048 4.49057 12.3258 4.45943 12.3402 4.4251C12.3545 4.39077 12.3619 4.35393 12.3619 4.31671C12.3619 4.2795 12.3545 4.24266 12.3402 4.20833C12.3258 4.17399 12.3048 4.14285 12.2783 4.11671L11.6153 3.45371C11.589 3.42736 11.5578 3.40648 11.5234 3.3923C11.489 3.37812 11.4521 3.37091 11.4149 3.3711C11.3777 3.37128 11.3408 3.37886 11.3066 3.39338C11.2723 3.40791 11.2413 3.4291 11.2153 3.45571Z" fill="#FFE500"/>
</g>
</svg>
