<svg width="32" height="32" viewBox="0 0 32 32" fill="none" xmlns="http://www.w3.org/2000/svg">
<g id="icon-arrow-right" clip-path="url(#clip0_954_5763)">
<path id="c" d="M22.849 9.65116C24.6314 11.475 25.6229 13.928 25.6082 16.4781C25.5936 19.0283 24.5741 21.4698 22.7708 23.273C20.9676 25.0763 18.5261 26.0958 15.976 26.1104C13.4258 26.1251 10.9728 25.1336 9.14896 23.3512C7.36651 21.5274 6.37506 19.0743 6.38968 16.5242C6.40431 13.974 7.42383 11.5325 9.22707 9.72927C11.0303 7.92603 13.4718 6.9065 16.022 6.89188C18.5721 6.87726 21.0252 7.86871 22.849 9.65116ZM23.811 16.5022C23.811 14.9572 23.3528 13.4469 22.4945 12.1623C21.6362 10.8776 20.4163 9.87633 18.9889 9.285C17.5616 8.69367 15.991 8.53885 14.4756 8.84012C12.9603 9.14138 11.5684 9.88521 10.4757 10.9775C9.38314 12.0699 8.63896 13.4616 8.33731 14.9769C8.03566 16.4921 8.19007 18.0628 8.78104 19.4903C9.37201 20.9178 10.373 22.138 11.6574 22.9966C12.9418 23.8553 14.452 24.3138 15.997 24.3142C18.0684 24.312 20.0544 23.4884 21.5192 22.0239C22.9841 20.5593 23.8083 18.5736 23.811 16.5022ZM17.846 11.3722L18.729 12.2552C18.7726 12.2987 18.8073 12.3505 18.8309 12.4074C18.8545 12.4644 18.8667 12.5255 18.8667 12.5872C18.8667 12.6488 18.8545 12.7099 18.8309 12.7669C18.8073 12.8238 18.7726 12.8756 18.729 12.9192L15.147 16.5012L18.729 20.0832C18.7726 20.1267 18.8073 20.1785 18.8309 20.2354C18.8545 20.2924 18.8667 20.3535 18.8667 20.4152C18.8667 20.4768 18.8545 20.5379 18.8309 20.5949C18.8073 20.6518 18.7726 20.7036 18.729 20.7472L17.846 21.6302C17.8024 21.6738 17.7506 21.7085 17.6937 21.7321C17.6367 21.7557 17.5756 21.7679 17.514 21.7679C17.4523 21.7679 17.3912 21.7557 17.3342 21.7321C17.2773 21.7085 17.2255 21.6738 17.182 21.6302L12.382 16.8302C12.3383 16.7866 12.3037 16.7348 12.28 16.6779C12.2564 16.6209 12.2442 16.5598 12.2442 16.4982C12.2442 16.4365 12.2564 16.3754 12.28 16.3184C12.3037 16.2615 12.3383 16.2097 12.382 16.1662L17.182 11.3662C17.2255 11.3225 17.2773 11.2879 17.3342 11.2642C17.3912 11.2406 17.4523 11.2284 17.514 11.2284C17.5756 11.2284 17.6367 11.2406 17.6937 11.2642C17.7506 11.2879 17.8024 11.3225 17.846 11.3662L17.846 11.3722Z" fill="white"/>
</g>
<defs>
<clipPath id="clip0_954_5763">
<rect width="32" height="32" fill="white"/>
</clipPath>
</defs>
</svg>
