<svg width="32" height="32" viewBox="0 0 32 32" fill="none" xmlns="http://www.w3.org/2000/svg">
<g id="icon-arrow-right" clip-path="url(#clip0_954_5481)">
<path id="c" d="M9.14909 23.351C7.36664 21.5272 6.37518 19.0742 6.38981 16.524C6.40443 13.9739 7.42395 11.5324 9.2272 9.72915C11.0304 7.92591 13.472 6.90638 16.0221 6.89176C18.5722 6.87714 21.0253 7.86859 22.8491 9.65104C24.6315 11.4748 25.623 13.9279 25.6084 16.478C25.5937 19.0282 24.5742 21.4697 22.771 23.2729C20.9677 25.0762 18.5262 26.0957 15.9761 26.1103C13.4259 26.1249 10.9729 25.1335 9.14909 23.351ZM8.18709 16.5C8.18709 18.045 8.6452 19.5553 9.50351 20.8399C10.3618 22.1246 11.5818 23.1259 13.0091 23.7172C14.4364 24.3085 16.0071 24.4633 17.5224 24.1621C19.0377 23.8608 20.4297 23.117 21.5223 22.0247C22.6149 20.9323 23.3591 19.5406 23.6607 18.0253C23.9624 16.5101 23.808 14.9394 23.217 13.5119C22.626 12.0844 21.6251 10.8642 20.3407 10.0056C19.0562 9.14694 17.5461 8.68844 16.0011 8.68804C13.9297 8.69016 11.9437 9.51382 10.4788 10.9783C9.01391 12.4429 8.18973 14.4286 8.18709 16.5ZM14.1521 21.63L13.2691 20.747C13.2254 20.7035 13.1908 20.6517 13.1672 20.5948C13.1435 20.5378 13.1314 20.4767 13.1314 20.415C13.1314 20.3534 13.1435 20.2923 13.1672 20.2353C13.1908 20.1784 13.2254 20.1266 13.2691 20.083L16.8511 16.501L13.2691 12.919C13.2254 12.8755 13.1908 12.8237 13.1672 12.7668C13.1435 12.7098 13.1314 12.6487 13.1314 12.587C13.1314 12.5254 13.1435 12.4643 13.1672 12.4073C13.1908 12.3504 13.2254 12.2986 13.2691 12.255L14.1521 11.372C14.1957 11.3284 14.2474 11.2937 14.3044 11.2701C14.3613 11.2465 14.4224 11.2343 14.4841 11.2343C14.5458 11.2343 14.6068 11.2465 14.6638 11.2701C14.7208 11.2937 14.7725 11.3284 14.8161 11.372L19.6161 16.172C19.6597 16.2156 19.6944 16.2674 19.718 16.3243C19.7417 16.3813 19.7538 16.4424 19.7538 16.504C19.7538 16.5657 19.7417 16.6268 19.718 16.6838C19.6944 16.7407 19.6597 16.7925 19.6161 16.836L14.8161 21.636C14.7725 21.6797 14.7208 21.7143 14.6638 21.738C14.6068 21.7616 14.5458 21.7738 14.4841 21.7738C14.4224 21.7738 14.3613 21.7616 14.3044 21.738C14.2474 21.7143 14.1957 21.6797 14.1521 21.636V21.63Z" fill="white"/>
</g>
<defs>
<clipPath id="clip0_954_5481">
<rect width="32" height="32" fill="white"/>
</clipPath>
</defs>
</svg>
