<svg width="20" height="21" viewBox="0 0 20 21" fill="none" xmlns="http://www.w3.org/2000/svg">
<g id="icon-drop-arrow-down">
<path id="c" d="M9.6677 13.201L5.8677 9.40097C5.77983 9.31302 5.73047 9.19379 5.73047 9.06947C5.73047 8.94515 5.77983 8.82591 5.8677 8.73797L6.3147 8.29897C6.40261 8.2114 6.52163 8.16223 6.6457 8.16223C6.76978 8.16223 6.8888 8.2114 6.9767 8.29897L9.9997 11.307L13.0217 8.29897C13.1096 8.2114 13.2286 8.16223 13.3527 8.16223C13.4768 8.16223 13.5958 8.2114 13.6837 8.29897L14.1267 8.74197C14.2146 8.82991 14.2639 8.94915 14.2639 9.07347C14.2639 9.19779 14.2146 9.31702 14.1267 9.40497L10.3267 13.205C10.2384 13.2911 10.1197 13.339 9.99638 13.3382C9.87304 13.3375 9.75495 13.2882 9.6677 13.201Z" fill="white"/>
</g>
</svg>
