<svg width="26" height="25" viewBox="0 0 26 25" fill="none" xmlns="http://www.w3.org/2000/svg">
<g clip-path="url(#clip0_41_436)">
<g clip-path="url(#clip1_41_436)">
<path d="M6.66064 23.5771C6.25521 23.5771 5.86245 23.4289 5.55506 23.1595C5.04235 22.7097 4.84741 22.0054 5.05157 21.3549C5.19115 20.7822 5.39415 19.9915 5.61215 19.1403C5.97261 17.7342 6.3717 16.1754 6.59316 15.1874C6.05047 14.8691 5.21133 14.3518 4.01866 13.5281C3.36465 13.0454 1.9361 11.6884 1.54681 10.4686C1.38302 9.95648 1.4701 9.38956 1.77923 8.95125C2.09585 8.50428 2.60856 8.23784 3.15126 8.23784C3.33697 8.23784 3.54575 8.24187 3.76894 8.24649C4.50715 8.26091 5.4253 8.28051 6.20042 8.14614C6.59316 8.07866 6.96112 7.9662 7.35098 7.84682C7.77488 7.71763 8.20973 7.58556 8.68438 7.50943C9.6775 5.15638 10.489 3.52194 11.1602 2.52305C11.4688 1.97574 12.0588 1.64181 12.6862 1.662C13.3311 1.68622 13.9136 2.08762 14.1697 2.68396C14.8352 4.22612 15.5884 5.74868 16.4096 7.21703C18.9945 7.21819 21.054 7.65303 23.3096 8.30185C23.9405 8.48294 24.4129 9.02507 24.5144 9.68196C24.6153 10.3365 24.3287 10.9957 23.7837 11.3625C21.8897 12.6463 20.6462 13.7357 19.3549 15.263C20.1502 17.3484 20.3821 19.5653 20.5897 21.5383C20.6578 22.1923 20.3746 22.8048 19.8527 23.1584C19.3169 23.5194 18.6404 23.5419 18.0844 23.223C18.0406 23.197 15.0301 21.4079 12.8322 20.5077C11.8379 21.0037 9.46642 22.2742 7.46402 23.3712C7.21546 23.5067 6.93805 23.5771 6.66064 23.5771Z" fill="#00A859"/>
</g>
</g>
<defs>
<clipPath id="clip0_41_436">
<rect width="25" height="24.03" fill="white" transform="translate(0.5 0.699951)"/>
</clipPath>
<clipPath id="clip1_41_436">
<rect width="25" height="24.03" fill="white" transform="translate(0.5 0.699951)"/>
</clipPath>
</defs>
</svg>
