<svg width="25" height="26" viewBox="0 0 25 26" fill="none" xmlns="http://www.w3.org/2000/svg">
<g clip-path="url(#clip0_41_394)">
<g clip-path="url(#clip1_41_394)">
<path d="M6.15844 24.2659C5.75287 24.2659 5.35997 24.1177 5.05247 23.8482C4.53958 23.3982 4.34458 22.6937 4.54881 22.043C4.68843 21.4701 4.89151 20.6791 5.10959 19.8276C5.47017 18.421 5.8694 16.8616 6.09094 15.8733C5.54806 15.5549 4.70863 15.0374 3.51553 14.2134C2.86129 13.7306 1.43224 12.3731 1.04281 11.1529C0.878962 10.6406 0.966078 10.0734 1.27531 9.63497C1.59205 9.18784 2.10493 8.9213 2.64783 8.9213C2.8336 8.9213 3.04245 8.92534 3.26572 8.92996C4.00419 8.94438 4.92266 8.964 5.69806 8.82957C6.09094 8.76207 6.45903 8.64957 6.84903 8.53015C7.27308 8.40091 7.70808 8.2688 8.18289 8.19264C9.17637 5.83877 9.98811 4.20375 10.6596 3.20451C10.9683 2.657 11.5585 2.32296 12.1862 2.34315C12.8313 2.36738 13.414 2.76893 13.6701 3.36547C14.3359 4.90818 15.0893 6.43128 15.9109 7.90014C18.4966 7.90129 20.5568 8.3363 22.8133 8.98534C23.4444 9.1665 23.9169 9.70881 24.0185 10.3659C24.1194 11.0207 23.8327 11.6802 23.2875 12.0471C21.3929 13.3313 20.149 14.4211 18.8572 15.9489C19.6528 18.0351 19.8847 20.2528 20.0924 22.2264C20.1605 22.8807 19.8772 23.4934 19.3551 23.8471C18.8191 24.2082 18.1424 24.2307 17.5863 23.9117C17.5424 23.8857 14.5309 22.096 12.3321 21.1955C11.3375 21.6916 8.96521 22.9626 6.96211 24.06C6.71345 24.1956 6.43595 24.2659 6.15844 24.2659Z" fill="#FBF780"/>
</g>
</g>
<defs>
<clipPath id="clip0_41_394">
<rect width="25" height="24.86" fill="white" transform="translate(0 0.969971)"/>
</clipPath>
<clipPath id="clip1_41_394">
<rect width="25" height="24.86" fill="white" transform="translate(0 0.969971)"/>
</clipPath>
</defs>
</svg>
