<svg width="26" height="26" viewBox="0 0 26 26" fill="none" xmlns="http://www.w3.org/2000/svg">
<g clip-path="url(#clip0_41_194)">
<g clip-path="url(#clip1_41_194)">
<path d="M6.40477 24.1906C5.98297 24.1906 5.57436 24.0364 5.25456 23.7562C4.72115 23.2882 4.51835 22.5555 4.73075 21.8787C4.87596 21.2829 5.08716 20.4603 5.31396 19.5747C5.68897 18.1119 6.10417 16.4901 6.33457 15.4623C5.76997 15.1311 4.89696 14.5929 3.65614 13.736C2.97573 13.2338 1.48952 11.822 1.08451 10.553C0.91411 10.0202 1.00471 9.4304 1.32631 8.9744C1.65572 8.50939 2.18912 8.23219 2.75373 8.23219C2.94693 8.23219 3.16414 8.23639 3.39634 8.24119C4.16435 8.25619 5.11956 8.27659 5.92597 8.13679C6.33457 8.06659 6.71738 7.94959 7.12298 7.82539C7.56399 7.69098 8.01639 7.55358 8.5102 7.47438C9.54341 5.02635 10.3876 3.32593 11.086 2.28673C11.407 1.71732 12.0208 1.36992 12.6736 1.39092C13.3445 1.41612 13.9505 1.83372 14.2169 2.45412C14.9093 4.05854 15.6929 5.64256 16.5473 7.17018C19.2365 7.17138 21.3791 7.62378 23.7258 8.29879C24.3822 8.48719 24.8736 9.0512 24.9792 9.73461C25.0842 10.4156 24.786 11.1014 24.219 11.483C22.2486 12.8186 20.9549 13.952 19.6115 15.5409C20.4389 17.7105 20.6801 20.0169 20.8961 22.0695C20.9669 22.7499 20.6723 23.3872 20.1293 23.755C19.5719 24.1306 18.8681 24.154 18.2897 23.8222C18.2441 23.7952 15.1121 21.9339 12.8254 20.9973C11.791 21.5133 9.32381 22.8351 7.24058 23.9764C6.98198 24.1174 6.69338 24.1906 6.40477 24.1906Z" fill="#F58634"/>
</g>
</g>
<defs>
<clipPath id="clip0_41_194">
<rect width="26" height="25" fill="white" transform="translate(0 0.390015)"/>
</clipPath>
<clipPath id="clip1_41_194">
<rect width="26" height="25" fill="white" transform="translate(0 0.390015)"/>
</clipPath>
</defs>
</svg>
