<svg width="1920" height="370" viewBox="0 0 1920 370" fill="none" xmlns="http://www.w3.org/2000/svg">
<g clip-path="url(#clip0_41_1746)">
<g clip-path="url(#clip1_41_1746)">
<g clip-path="url(#clip2_41_1746)">
<path fill-rule="evenodd" clip-rule="evenodd" d="M1921.32 121.985C1897.21 104.956 1871.88 89.5237 1845.5 75.831C1737.95 20.039 1616.99 -4.65291 1496.27 4.5462C1375.57 13.7453 1259.93 56.4685 1162.45 127.885L1113.51 162.927C1061.53 200.419 1001.1 224.598 937.504 233.346C873.911 242.094 809.099 235.144 748.746 213.106L692.251 194.307C577.82 154.507 454.593 147.416 336.501 173.837C218.41 200.259 110.165 259.139 24.0044 343.82C15.2985 352.376 6.8531 361.161 -1.32465 370.164V-1.3335H1921.32V121.985Z" fill="white"/>
</g>
</g>
</g>
<defs>
<clipPath id="clip0_41_1746">
<rect width="1920" height="369.33" fill="white"/>
</clipPath>
<clipPath id="clip1_41_1746">
<rect width="1920" height="369.33" fill="white"/>
</clipPath>
<clipPath id="clip2_41_1746">
<rect width="1919.98" height="369.33" fill="white" transform="translate(0.00866699)"/>
</clipPath>
</defs>
</svg>
