<svg width="246" height="369" viewBox="0 0 246 369" fill="none" xmlns="http://www.w3.org/2000/svg">
<g clip-path="url(#clip0_41_1752)">
<g clip-path="url(#clip1_41_1752)">
<g clip-path="url(#clip2_41_1752)">
<g opacity="0.15">
<path d="M13.6299 141.471C13.7599 129.317 13.3299 117.169 13.4099 105.018C13.4499 99.02 13.6099 93.0206 14.0599 87.0372C14.2699 84.0215 14.5699 81.0049 14.9399 78.0081C14.9599 77.8493 15.1199 76.6462 15.0199 77.3596L15.0699 77.0079C15.1799 76.2385 15.2999 75.4701 15.4199 74.6977C15.6599 73.1639 15.9399 71.641 16.2299 70.1142C17.3399 64.3246 18.9299 58.638 20.9699 53.1112C21.1699 52.5866 21.3699 52.061 21.5699 51.5334C21.9899 50.4752 21.5599 51.4755 21.5099 51.6613C21.6499 51.3586 21.7699 51.0588 21.9099 50.765C22.4399 49.5949 23.0099 48.4168 23.5899 47.2337C24.7099 45.0334 25.9499 42.8941 27.2799 40.8136C27.9499 39.7714 28.6399 38.7452 29.3599 37.73L30.3699 36.3281C31.0699 35.3938 30.4399 36.2382 30.3099 36.406L31.0799 35.4318C32.6799 33.4403 34.3599 31.4698 36.1599 29.6952C37.8799 27.9365 39.6899 26.2668 41.5799 24.691C42.0699 24.2823 42.5699 23.8696 43.0899 23.4649C42.1199 24.2373 43.0899 23.4649 43.5499 23.1352C44.5899 22.3748 45.6499 21.6383 46.7199 20.9409C48.7899 19.5959 50.9299 18.3768 53.1499 17.2907L54.6399 16.5932L55.4999 16.2085C56.1599 15.9067 55.0699 16.4053 55.0399 16.4033C55.6499 16.2585 56.2299 16.0286 56.7799 15.7219C57.3699 15.563 57.9499 15.3062 58.5399 15.1163C60.8099 14.3719 63.1299 13.7983 65.4899 13.4016C66.1699 13.2797 67.0999 13.0409 65.8699 13.2987C66.4699 13.1988 67.0799 13.1388 67.6899 13.1189C68.9099 13.0169 70.1399 12.976 71.3699 12.985C72.5999 12.995 73.5299 13.0349 74.6099 13.1458C75.2299 13.1958 75.8399 13.2678 76.4599 13.3377C75.0799 13.1838 76.6699 13.3847 77.1799 13.4846C79.5899 13.9242 81.9599 14.5688 84.2599 15.4101C84.7599 15.595 85.2499 15.8008 85.7599 16.0356C84.2299 15.4181 86.0499 16.1825 86.3599 16.3274C87.4299 16.83 88.4799 17.3806 89.5199 17.9662C90.5599 18.5507 91.2899 19.0133 92.1399 19.5839C92.6299 19.9057 93.1199 20.2374 93.5899 20.5742L94.2999 21.0918C94.9499 21.5654 94.3999 21.0668 94.0699 20.9179C94.9799 21.5004 95.8099 22.2009 96.5299 23.0003C97.4099 23.7927 98.2599 24.5921 99.0699 25.4025C100.68 27.0242 102.18 28.7909 103.63 30.5795C103.86 30.8663 104.41 31.3239 103.47 30.3647C103.62 30.5215 103.74 30.7334 103.87 30.9052C104.19 31.3329 104.51 31.7606 104.81 32.1843C105.53 33.1735 106.22 34.1897 106.88 35.2039C108.2 37.2234 109.44 39.2848 110.59 41.4002C112.97 45.6619 115.1 50.0616 117.09 54.5191C117.59 55.6403 118.08 56.7504 118.56 57.8766C118.79 58.3992 119.01 58.9248 119.24 59.4514C119.37 59.7541 119.49 60.0599 119.63 60.3737C119.63 60.3737 120.24 61.8725 119.87 60.9662C119.49 60.0599 120.24 61.7716 120.3 62.0104C120.55 62.6109 120.8 63.2225 121.05 63.863C121.55 65.0751 122.05 66.2991 122.53 67.5132C126.6 77.5985 130.52 87.7637 135.48 97.4473C141.41 108.769 148.2 119.616 155.79 129.896C163.55 140.554 171.77 150.852 179.97 161.185C181.92 163.642 183.87 166.11 185.81 168.589C186.33 169.239 186.85 169.903 187.36 170.566L187.52 170.77C187.71 171.017 187.91 171.262 188.1 171.518C189.14 172.836 190.15 174.163 191.15 175.497C194.95 180.49 198.68 185.531 202.23 190.7C209.34 200.897 215.58 211.668 220.9 222.9C221.53 224.262 222.16 225.645 222.76 227.023C222.92 227.392 223.07 227.761 223.23 228.13C223.25 228.187 223.64 229.049 223.39 228.469C223.14 227.888 223.57 228.933 223.63 229.081C223.83 229.542 224.01 230.006 224.2 230.479C225.3 233.259 226.33 236.066 227.27 238.902C229.2 244.704 230.72 250.638 231.81 256.656C232.06 258.098 232.27 259.553 232.49 261.002C232.6 261.744 232.46 260.907 232.44 260.801C232.48 261.19 232.53 261.568 232.57 261.956C232.67 262.833 232.75 263.705 232.83 264.577C233.1 267.498 233.23 270.418 233.23 273.334C233.24 276.368 233.09 279.399 232.8 282.417C232.73 283.101 232.66 283.787 232.58 284.467C232.56 284.627 232.41 285.836 232.5 285.134C232.59 284.433 232.42 285.648 232.4 285.798C232.19 287.243 231.94 288.676 231.64 290.11C230.76 294.452 229.51 298.71 227.89 302.833C227.78 303.109 227.19 304.49 227.54 303.697C227.89 302.905 227.15 304.561 227.07 304.756C226.6 305.808 226.11 306.843 225.59 307.876C224.62 309.809 223.55 311.719 222.46 313.561C221.38 315.401 220.09 317.339 218.78 319.156C218.5 319.573 218.19 319.972 217.9 320.419C216.99 321.692 218.52 319.659 217.56 320.882C216.85 321.781 216.12 322.685 215.37 323.573C212.52 326.952 209.43 330.123 206.13 333.062C205.3 333.796 204.48 334.531 203.64 335.208L202.45 336.172L201.77 336.715C200.86 337.451 202.47 336.208 201.84 336.695C200.06 337.962 198.34 339.286 196.52 340.504C192.75 343.003 188.82 345.243 184.75 347.208C183.77 347.686 182.78 348.146 181.78 348.588L180.38 349.19L180.91 348.965C180.52 349.169 180.12 349.333 179.7 349.453C177.68 350.256 175.62 350.986 173.54 351.646C169.27 353.019 164.89 354.073 160.46 354.799L158.97 355.035L158.32 355.127C157.2 355.294 158.56 355.123 158.68 355.03C157.55 355.265 156.39 355.389 155.24 355.397C153.01 355.581 150.78 355.686 148.55 355.698C146.32 355.709 144.09 355.629 141.86 355.437C140.82 355.376 139.85 355.266 138.84 355.155C138.28 355.089 137.69 355.053 137.14 354.934C138.5 355.206 137.21 354.913 136.59 354.834C132.29 354.12 128.05 353.043 123.93 351.62C120.84 350.556 116.99 352.851 116.28 355.989C115.88 357.588 116.12 359.278 116.93 360.71C117.75 362.141 119.08 363.205 120.65 363.681C138.76 369.925 158.85 369.414 176.94 363.604C195.36 357.772 211.78 346.888 224.33 332.182C230.7 324.63 235.83 316.119 239.55 306.962C243.58 296.664 245.66 285.697 245.66 274.626C245.96 248.675 236.39 223.499 223.6 201.288C210.48 178.385 193.21 158.288 177.07 137.498C176.3 136.504 176.74 137.073 176.91 137.296C176.65 136.963 176.4 136.63 176.14 136.3C175.63 135.644 175.12 134.981 174.58 134.323C173.56 132.995 172.56 131.661 171.55 130.33C169.54 127.662 167.57 124.977 165.62 122.273C161.84 116.949 158.15 111.527 154.7 105.95C151.25 100.373 148.03 94.6934 145.13 88.8328C143.79 86.1249 142.52 83.384 141.32 80.6102C140.85 79.526 140.38 78.4288 139.91 77.3317C139.85 77.1018 139.73 76.887 139.63 76.6682C139.15 75.523 139.66 76.7831 139.69 76.898C139.32 76.2685 139.04 75.59 138.85 74.8825C131 55.7062 124.2 35.189 110.37 19.3161C103.75 11.599 95.1399 5.84944 85.4999 2.69285C75.2499 -0.430753 64.2799 -0.165955 54.2199 3.44728C33.2999 10.8046 17.1199 28.7219 9.20994 49.1742C0.10994 72.5403 0.739941 98.4185 1.06994 123.071C1.15994 129.209 1.23994 135.349 1.15994 141.421C1.21994 143.035 1.90994 144.564 3.06994 145.687C4.22994 146.81 5.76994 147.442 7.38994 147.448C8.99994 147.455 10.5499 146.836 11.7099 145.722C12.8799 144.608 13.5599 143.084 13.6299 141.471Z" fill="#FFC4A4"/>
<path d="M61.6099 147.144C61.4799 146.418 61.3599 145.681 61.2399 144.942C61.1699 144.507 61.1199 144.061 61.0499 143.617C60.9799 143.173 60.7399 142.477 61.0899 143.956C60.8199 142.341 60.6599 140.71 60.5999 139.074C60.3699 136.107 60.2499 133.128 60.2599 130.159C60.2699 127.034 60.4199 123.912 60.6999 120.796C60.8399 119.322 60.9299 117.829 61.2099 116.369C61.1799 116.531 60.9899 117.751 61.1699 116.646C61.2299 116.207 61.2999 115.768 61.3799 115.327C61.4899 114.588 61.6199 113.855 61.7499 113.121C62.2599 110.192 62.9199 107.29 63.7299 104.427C64.0799 103.183 64.4799 101.957 64.9199 100.739L65.1999 100.018C65.6799 98.7284 64.5899 101.319 65.2099 100.066C65.4799 99.4798 65.7299 98.8982 66.0299 98.3347C66.6199 97.2185 67.2699 96.1363 67.9799 95.0921C68.7099 93.984 67.0299 96.1873 67.9199 95.1801L68.3899 94.6115C68.8899 94.0509 69.4099 93.5194 69.9599 93.0207C70.1699 92.8828 70.3599 92.722 70.5299 92.5401L69.8499 93.0607L70.4599 92.621C70.9599 92.2773 71.4799 91.9595 72.0199 91.6698L72.6599 91.354C73.8399 90.7505 71.1799 91.8536 72.4199 91.418C73.0499 91.2491 73.6599 90.9943 74.3099 90.8294C74.9599 90.6655 75.3499 90.6036 75.8699 90.5047C77.1699 90.2598 74.3099 90.6256 75.6299 90.5686L76.3499 90.5206C76.9399 90.4947 77.5499 90.4877 78.1499 90.5117L79.1899 90.5906C79.6599 90.6296 80.7899 90.9243 79.0299 90.5406C80.2399 90.8024 81.4299 91.0073 82.6099 91.369C83.1999 91.5619 83.7499 91.7837 84.3599 91.9905C84.9699 92.1974 84.6099 92.3962 83.9199 91.7907C84.2899 92.0205 84.6799 92.2074 85.0899 92.3502C86.1399 92.8738 87.1499 93.4674 88.1199 94.1249C88.3999 94.3697 88.6999 94.5855 89.0199 94.7674C88.9199 94.7234 87.8499 93.7971 88.6299 94.4636C89.2499 95.0042 89.8799 95.5238 90.4799 96.0944C91.4899 97.0516 92.4399 98.0679 93.3399 99.138C93.5299 99.3369 93.7099 99.5547 93.8599 99.7885L93.3899 99.166C93.5599 99.3869 93.7199 99.6107 93.8799 99.8345C94.3499 100.45 94.7799 101.083 95.2099 101.718C96.7899 104.139 98.1999 106.664 99.4399 109.275C100.05 110.547 100.64 111.84 101.2 113.137L101.53 113.922L101.7 114.308C101.96 114.956 101.91 114.837 101.54 113.941C101.67 114.187 101.78 114.446 101.86 114.717C102.06 115.207 102.25 115.699 102.46 116.19C104.82 122.099 107 128.089 109.1 134.111C117.57 158.485 124.96 183.753 138.68 205.755C145.2 216.229 153.16 225.736 159.68 236.223C161.26 238.757 162.75 241.356 164.1 244.024C164.75 245.299 165.37 246.59 165.95 247.904C166 248.096 166.49 249.197 166.01 248.115C165.52 247.033 166.01 248.115 166.07 248.326C166.33 248.983 166.58 249.646 166.82 250.311C167.63 252.548 168.3 254.831 168.83 257.148C169.14 258.297 169.33 259.478 169.52 260.649C169.6 261.131 169.78 263.272 169.64 261.09C169.7 261.803 169.81 262.504 169.86 263.208C170.06 265.542 170.09 267.886 169.94 270.222C169.9 270.809 169.85 271.386 169.79 271.957C169.76 272.294 169.69 272.642 169.68 273.015C169.66 272.948 169.93 271.437 169.74 272.431C169.52 273.671 169.3 274.902 168.97 276.119C168.7 277.169 168.38 278.198 168.01 279.212L167.71 280.001C167.29 281.141 168.21 278.841 167.88 279.628C167.61 280.193 167.37 280.791 167.08 281.319C166.56 282.333 165.99 283.316 165.36 284.265C165.05 284.74 164.67 285.19 164.38 285.679C165.19 284.302 164.92 284.98 164.6 285.372C164.29 285.764 164.13 285.94 163.88 286.224C163.23 286.966 162.51 287.658 161.75 288.292L161.28 288.675C162.65 287.456 162.13 288.036 161.72 288.312C161.3 288.588 160.81 288.945 160.34 289.236C159.47 289.761 158.57 290.242 157.65 290.674C156.62 291.177 158.99 290.172 158.22 290.439L157.52 290.71C156.95 290.924 156.39 291.106 155.81 291.272C155.08 291.466 153.64 292.056 152.9 291.875C152.9 291.875 154.67 291.708 153.68 291.769L152.95 291.829C152.43 291.856 151.94 291.864 151.37 291.851C150.81 291.839 150.44 291.804 149.97 291.765C148.84 291.669 151.57 292.068 150.46 291.83C150.27 291.797 150.09 291.764 149.92 291.718C149.47 291.626 149.02 291.508 148.58 291.367C148.36 291.303 148.15 291.215 147.93 291.151C146.68 290.735 149.24 291.828 148.27 291.285C147.87 291.075 147.46 290.865 147.06 290.582L146.6 290.285C145.67 289.693 147.82 291.336 146.99 290.591C146.68 290.305 146.36 290.031 146.06 289.73C145.9 289.559 145.75 289.384 145.58 289.213C144.8 288.396 146.54 290.516 145.85 289.582C144.99 288.212 143.66 287.193 142.12 286.708C140.5 286.28 138.77 286.509 137.32 287.348C134.71 289.074 133.02 293.079 135.11 295.899C136.78 298.333 138.98 300.357 141.55 301.817C144.14 303.162 146.96 303.978 149.87 304.22C154.96 304.767 160.25 303.29 164.77 301.021C174.43 296.187 180.27 285.623 181.82 275.196C183.52 263.648 181.32 252.191 176.65 241.578C171.42 229.709 163.25 219.492 155.81 208.995C148.16 198.154 141.72 186.51 136.59 174.269C135.96 172.796 137.13 175.584 136.55 174.098C136.47 173.8 136.31 173.523 136.2 173.234C135.88 172.448 135.56 171.661 135.24 170.872C134.58 169.211 133.94 167.554 133.31 165.885C132.16 162.845 131.05 159.774 129.96 156.707C127.68 150.252 125.47 143.768 123.28 137.275C121.13 130.942 118.93 124.628 116.56 118.371C114.3 112.07 111.65 105.92 108.61 99.9584C105.65 94.4337 101.79 89.0388 96.8099 85.1438C91.5899 80.964 85.2099 78.4949 78.5399 78.0722C75.2999 77.8923 72.0599 78.369 69.0199 79.4741C65.9699 80.5783 63.1799 82.289 60.8099 84.5033C56.2399 88.807 53.5599 94.8453 51.8599 100.754C50.0499 107.203 48.8599 113.812 48.2999 120.491C47.6999 126.933 47.6799 133.419 48.2399 139.868C48.5499 143.389 48.9999 146.854 49.5999 150.379C50.1499 153.61 54.2399 155.762 57.2399 154.804C60.7099 153.709 62.2599 150.616 61.6499 147.153" fill="#FFC4A4"/>
<path d="M64.3299 206.293C65.4499 205.865 66.5899 205.497 67.7499 205.192C68.3199 205.039 68.8999 204.882 69.4999 204.806L70.1799 204.621C70.3999 204.562 71.9799 204.345 70.7799 204.523C69.5799 204.701 71.3999 204.479 71.7399 204.452C72.3299 204.416 72.9299 204.39 73.5299 204.383C74.7899 204.364 76.0499 204.418 77.2999 204.544C77.5999 204.593 77.8999 204.626 78.1999 204.643C76.6899 204.677 77.2899 204.506 77.8399 204.596C78.3799 204.686 78.9099 204.781 79.4299 204.898C80.7199 205.165 81.9999 205.509 83.2499 205.929C83.7699 206.099 84.2699 206.284 84.7699 206.488C85.2799 206.692 85.9599 207.084 84.4699 206.343C84.6799 206.451 84.9099 206.534 85.1299 206.639C86.3299 207.186 87.4899 207.807 88.6199 208.498C89.1299 208.803 89.6299 209.132 90.1199 209.472C90.3199 209.613 90.5099 209.757 90.7099 209.889C91.7499 210.637 89.7799 209.113 90.4399 209.684C91.4299 210.47 92.3699 211.307 93.2599 212.194C93.6899 212.625 94.0999 213.069 94.4999 213.516C94.6599 213.699 94.8199 213.894 94.9799 214.077L95.2099 214.365C95.6199 214.88 95.5099 214.744 94.8899 213.946C95.3999 215.011 96.3199 215.977 96.9199 216.998C97.5199 218.018 98.0699 219.155 98.5799 220.27C98.7899 220.729 98.7199 221.167 98.3599 219.735C98.4499 220.079 98.6399 220.43 98.7599 220.768C98.9599 221.339 99.1599 221.923 99.3399 222.502C99.6899 223.678 99.9799 224.872 100.21 226.078C100.35 226.605 100.45 228.675 100.35 226.586C100.39 227.192 100.49 227.81 100.53 228.416C100.64 229.884 100.65 231.358 100.56 232.825C100.52 233.43 100.45 234.045 100.4 234.654C100.29 235.989 100.66 233.187 100.42 234.504C100.37 234.859 100.31 235.224 100.23 235.583C99.9799 236.901 99.6499 238.202 99.2299 239.477C99.1099 239.828 98.9999 240.176 98.8599 240.52C98.7299 240.863 98.1799 242.027 98.9399 240.408C98.6299 241.074 98.3399 241.748 98.0099 242.403C96.5299 245.313 97.1999 249.325 100.3 250.941C103.17 252.442 107.24 251.774 108.81 248.662C111.59 243.067 113.03 236.894 113.02 230.637C113 224.379 111.53 218.208 108.72 212.615C103.48 202.011 92.7199 194.416 81.1399 192.526C74.4299 191.283 67.5199 191.845 61.0999 194.154C59.5299 194.623 58.1799 195.656 57.3099 197.058C56.4999 198.498 56.2799 200.199 56.6999 201.802C57.6399 204.756 61.0799 207.47 64.3399 206.228" fill="#FFC4A4"/>
</g>
</g>
</g>
</g>
<defs>
<clipPath id="clip0_41_1752">
<rect width="246" height="368" fill="white" transform="translate(0 0.390137)"/>
</clipPath>
<clipPath id="clip1_41_1752">
<rect width="246" height="368" fill="white" transform="translate(0 0.390137)"/>
</clipPath>
<clipPath id="clip2_41_1752">
<rect width="246" height="368" fill="white" transform="translate(0 0.390137)"/>
</clipPath>
</defs>
</svg>
