<svg width="244" height="198" viewBox="0 0 244 198" fill="none" xmlns="http://www.w3.org/2000/svg">
<g clip-path="url(#clip0_41_1763)">
<g clip-path="url(#clip1_41_1763)">
<g clip-path="url(#clip2_41_1763)">
<g opacity="0.15">
<path d="M-51.1678 212.333C-48.4624 205.384 -45.6773 198.475 -42.8124 191.608L-41.8288 189.263C-42.1655 190.069 -41.6959 188.962 -41.6162 188.777C-41.4301 188.343 -41.2441 187.892 -41.0668 187.476C-40.3226 185.742 -39.5754 184.007 -38.8252 182.273C-37.3189 178.821 -35.7919 175.373 -34.2443 171.929C-28.2132 158.519 -21.8337 145.269 -15.1056 132.178C-1.60074 105.854 13.2697 80.2518 29.445 55.4748C31.1049 52.9317 32.8002 50.4187 34.5309 47.9346C35.3934 46.7135 36.2617 45.5014 37.136 44.2983L38.5448 42.3958L39.1207 41.6434C39.3511 41.3426 40.0067 40.5013 39.3954 41.2717C43.1574 36.3674 47.2833 31.753 51.7381 27.4672C52.7925 26.467 53.8734 25.4848 54.9809 24.5375C55.5037 24.0868 56.0265 23.6532 56.5581 23.2105L57.4442 22.503C58.6315 21.5468 56.5581 23.1665 57.7543 22.2632C60.146 20.4626 62.653 18.8189 65.2592 17.344C66.4406 16.6945 67.622 16.087 68.8034 15.5204C69.0692 15.3965 71.2046 14.5032 69.911 15.0168C70.6021 14.742 71.2843 14.4682 71.9843 14.2204C74.8054 13.2002 77.7153 12.4448 80.6764 11.9631L81.5625 11.8302C80.2865 12.0161 81.3587 11.8302 81.6865 11.8302C82.3865 11.7603 83.0865 11.6983 83.7953 11.6624C85.4494 11.5814 87.1072 11.6114 88.7573 11.7513L89.9357 11.8752C89.723 11.8752 88.7927 11.6803 89.8471 11.8752C90.618 12.0161 91.38 12.158 92.142 12.3528C92.904 12.5477 93.4888 12.7155 94.1533 12.9364C94.5255 13.0603 94.8799 13.1932 95.2431 13.3261C96.6608 13.8397 94.2774 12.8125 95.6153 13.486C96.2976 13.8397 96.9797 14.1754 97.6354 14.5741C97.9012 14.733 98.1582 14.9009 98.4152 15.0697C98.4152 15.0697 99.6468 15.9541 98.9734 15.4415C98.3 14.9279 99.4874 15.8751 99.4874 15.8751C99.7177 16.078 99.948 16.2908 100.17 16.5116C100.745 17.0602 101.268 17.6618 101.8 18.2813C102.172 18.706 102.252 18.4502 101.64 18.0694C101.818 18.2583 101.97 18.4691 102.092 18.698C102.447 19.2196 102.783 19.7502 103.094 20.3077C103.404 20.8653 103.669 21.4139 103.98 21.9804C104.29 22.547 104.183 21.9804 103.864 21.6887C104.059 21.8386 104.166 22.4851 104.263 22.7419C104.674 23.9439 105.011 25.171 105.273 26.4141C105.388 26.9806 105.477 27.5552 105.583 28.1307C105.69 28.7063 106.035 29.0161 105.583 28.0068C105.683 28.3905 105.725 28.7872 105.707 29.1839C105.942 31.8319 106.022 34.4909 105.947 37.1478C105.84 42.7495 105.344 48.3423 105.353 53.9609C105.353 65.4651 108.082 77.2701 117.448 84.7823C126.556 92.0827 138.225 93.9763 149.549 94.8346C155.14 95.2593 160.749 95.4102 166.384 95.7199C169.131 95.8708 171.878 96.0567 174.616 96.3655C174.74 96.3655 176.459 96.5963 175.2 96.4274L176.237 96.5783L178.815 97.003C180.525 97.3127 182.236 97.6665 183.928 98.0831C187.23 98.8735 190.484 99.8508 193.674 101.012C194.41 101.277 195.145 101.551 195.872 101.834L197.325 102.428C197.112 102.33 196.439 102.029 197.431 102.472C199.032 103.162 200.609 103.897 202.163 104.675C205.277 106.236 208.298 107.976 211.209 109.887C212.521 110.748 213.806 111.634 215.064 112.542L216.109 113.32C216.907 113.905 215.17 112.551 216.357 113.515C217.04 114.064 217.713 114.621 218.378 115.206C220.768 117.284 222.987 119.551 225.014 121.984L225.626 122.745C226.644 123.984 225.014 121.86 225.944 123.161C226.361 123.753 226.831 124.338 227.203 124.931C228.143 126.323 229.004 127.768 229.781 129.258C230.073 129.816 230.348 130.381 230.614 130.957C230.694 131.125 231.278 132.568 230.8 131.347C230.915 131.629 231.03 131.921 231.137 132.231C231.673 133.674 232.108 135.153 232.439 136.656C232.51 136.974 232.838 139.311 232.696 137.86C232.767 138.611 232.838 139.355 232.864 140.116C232.864 140.717 232.864 141.319 232.864 141.886C232.864 142.337 232.802 142.771 232.776 143.24C232.705 144.452 232.989 142.266 232.776 143.567C232.525 144.955 232.167 146.322 231.704 147.655C231.704 147.779 231.004 149.292 231.509 148.195C231.367 148.496 231.225 148.805 231.075 149.08C230.667 149.902 230.189 150.717 229.719 151.504C229.32 152.151 228.895 152.779 228.461 153.398C228.461 153.336 227.513 154.673 227.982 154.053C228.452 153.434 227.415 154.744 227.468 154.69C226.379 156 225.227 157.248 224.039 158.469C221.922 160.628 219.698 162.69 217.394 164.663C216.366 165.548 215.321 166.371 214.266 167.211C213.212 168.053 214.878 166.752 214.151 167.291L213.265 167.964L211.493 169.292C201.817 176.22 191.176 181.68 180.348 186.538C177.708 187.717 175.05 188.898 172.374 190.078L170.265 190.963L169.379 191.326C170.62 190.794 169.202 191.396 169.016 191.476L164.78 193.245C158.959 195.679 153.129 198.087 147.343 200.608C136.453 205.36 125.688 210.537 115.737 217.067C105.077 224.085 95.572 232.712 87.561 242.641C79.0993 253.074 71.8514 264.375 64.2402 275.382C62.3972 278.073 60.5159 280.727 58.5961 283.347C57.6569 284.63 56.7088 285.895 55.7519 287.161C55.5924 287.364 54.8658 288.231 55.5569 287.417L54.9367 288.205C54.3165 288.993 53.6962 289.771 53.0583 290.542C51.0647 292.993 49.0002 295.39 46.8559 297.7C45.7218 298.912 44.5699 300.107 43.3117 301.239C42.8155 301.691 42.3105 302.125 41.7966 302.575C41.2827 303.027 41.0168 303.231 40.6181 303.55C41.3712 302.947 40.3346 303.753 40.122 303.903C38.8941 304.783 37.6094 305.581 36.2764 306.293C35.8423 306.522 35.3904 306.735 34.9562 306.956C33.9727 307.31 34.7436 307.054 34.9562 306.956C34.2031 307.222 33.4589 307.496 32.688 307.709C32.0855 307.867 31.4741 307.991 30.8627 308.097C32.2449 307.858 30.7741 308.097 30.5171 308.097C30.2602 308.097 29.9057 308.097 29.6311 308.097C29.6311 308.097 28.0982 308.097 29.002 308.097C29.9058 308.097 28.4438 307.991 28.3818 307.974C28.0805 307.903 27.7793 307.823 27.4958 307.734C27.2122 307.647 25.8831 307.107 27.0439 307.62L29.6046 310.956C29.7818 312.177 29.6045 310.442 29.5425 310.328L29.4362 309.283C29.3653 308.399 29.3033 307.514 29.259 306.628C29.1792 304.859 29.1792 303.133 29.259 301.39C29.3387 299.647 29.4893 297.912 29.6577 296.178C29.6577 295.983 29.7906 295.081 29.6577 296.107C29.7108 295.674 29.7817 295.222 29.8437 294.815C29.9973 293.865 30.1657 292.919 30.3488 291.975C31.0357 288.525 31.9413 285.124 33.0601 281.789C33.5681 280.274 34.1086 278.775 34.6816 277.294C35.0094 276.462 35.3373 275.63 35.6829 274.817C35.3107 275.701 35.7626 274.64 35.86 274.427L36.6309 272.71C39.5717 266.39 42.9837 260.3 46.8382 254.49C48.7964 251.508 50.852 248.597 52.9608 245.729C54.0152 244.305 55.0873 242.88 56.1595 241.464L57.4619 239.774C58.5252 238.385 56.8151 240.597 57.8961 239.217L58.8796 237.951C67.7401 226.678 76.9196 215.669 84.7257 203.652C91.442 193.307 97.281 182.149 99.0974 169.822C100.781 158.407 99.6202 146.345 92.009 137.151C88.0521 132.5 82.6873 129.26 76.7247 127.921C70.1774 126.586 63.3833 127.171 57.1607 129.603C43.6484 134.656 33.0247 144.514 22.7908 154.318L-12.1994 187.856C-23.7889 198.959 -35.3784 210.067 -46.968 221.182C-48.1819 222.341 -49.4224 223.447 -50.6806 224.562C-50.8223 224.686 -51.5135 225.218 -50.6806 224.624C-51.0084 224.872 -51.3539 225.111 -51.6906 225.35C-52.4435 225.851 -53.2245 226.309 -54.0298 226.722C-54.9158 227.217 -54.2601 226.845 -54.0298 226.722C-54.4905 226.898 -54.9159 227.049 -55.4298 227.182C-55.7314 227.214 -56.0286 227.279 -56.3158 227.376C-56.0234 226.969 -55.1551 227.376 -56.1918 227.376H-57.1753C-58.3183 227.376 -56.8652 227.447 -56.8741 227.447C-57.6675 227.416 -58.4432 227.204 -59.1423 226.827C-59.0803 226.88 -58.0082 227.456 -58.8588 226.898C-59.1146 226.709 -59.3874 226.543 -59.6739 226.403C-60.2764 226.146 -58.841 227.288 -59.5587 226.448C-59.7421 226.282 -59.9112 226.101 -60.0638 225.907C-59.9221 226.084 -59.7803 226.27 -59.6297 226.448C-59.7683 226.245 -59.8954 226.035 -60.0106 225.819C-59.922 225.757 -59.6297 227.208 -59.8689 226.12C-59.8689 226.014 -59.984 224.943 -60.0017 225.615C-59.9309 226.017 -59.9132 225.928 -59.9486 225.35C-60.0727 226.005 -60.0638 226.005 -59.9486 225.35C-59.8423 225.014 -59.2132 223.385 -59.6385 224.279C-59.2523 223.49 -58.8234 222.722 -58.3537 221.978C-57.2727 220.209 -56.112 218.554 -54.9779 216.855C-52.7982 213.546 -50.6126 210.242 -48.4211 206.944C-47.6853 205.665 -47.4829 204.148 -47.8576 202.72C-48.2323 201.293 -49.1539 200.07 -50.4236 199.316C-51.7111 198.603 -53.224 198.413 -54.648 198.786C-56.072 199.159 -57.2976 200.065 -58.0702 201.316C-61.3752 206.315 -64.8307 211.253 -67.9939 216.36C-71.4407 221.899 -72.5837 228.748 -67.8434 233.951C-64.2106 237.933 -58.3094 239.261 -53.1703 238.155C-47.6502 237.005 -43.1846 233.04 -39.2328 229.306C-21.5472 212.392 -3.88226 195.461 13.762 178.512C22.2326 170.389 30.5171 161.982 39.289 154.177C41.1763 152.495 43.1257 150.877 45.1104 149.31L45.1901 149.248L46.0054 148.637L47.4495 147.593C48.4773 146.859 49.5318 146.142 50.595 145.461C52.7505 144.064 54.9874 142.796 57.2936 141.665C57.7987 141.417 58.3214 141.186 58.8265 140.947C59.0303 140.859 59.8189 140.541 58.8265 140.947L59.491 140.682C60.6606 140.222 61.8391 139.797 63.0352 139.46C64.063 139.169 65.0997 138.912 66.1541 138.709C66.6415 138.62 67.811 138.461 66.668 138.594C67.3325 138.514 67.9971 138.452 68.6705 138.416C69.7003 138.354 70.733 138.354 71.7628 138.416L72.6488 138.496C73.3311 138.496 72.2589 138.434 72.2589 138.434C72.929 138.452 73.5912 138.584 74.2172 138.824C75.3111 139.094 76.3856 139.436 77.4335 139.85C76.4234 139.46 77.6462 139.974 78.0095 140.16C78.5323 140.435 79.0462 140.717 79.5512 141.045C80.0563 141.372 80.3131 141.514 80.6764 141.771C80.8991 141.891 81.1073 142.036 81.2967 142.204C81.2967 142.204 80.2511 141.319 81.0486 142.018C81.846 142.717 82.422 143.222 83.0599 143.885C83.3523 144.195 83.6359 144.505 83.946 144.823C83.946 144.823 84.4156 145.363 84.3979 145.381C84.3802 145.399 83.5827 144.24 84.1852 145.106C84.7878 145.973 85.1865 146.593 85.6295 147.372C86.0993 148.146 86.5052 148.957 86.8434 149.797C86.8434 149.797 86.4269 148.717 86.6219 149.31C86.7016 149.54 86.799 149.762 86.8788 149.991C87.0737 150.505 87.251 151.027 87.4105 151.557C87.6586 152.39 87.8801 153.23 88.0661 154.079C88.1548 154.504 88.2434 154.965 88.3143 155.371C88.3143 155.619 88.4028 155.876 88.4382 156.124C88.4737 156.371 88.4383 156.371 88.5003 156.495C88.5623 156.929 88.5002 156.752 88.4293 155.965C88.7572 156.275 88.6331 158.194 88.6597 158.619C88.7129 159.663 88.7307 160.716 88.7129 161.76C88.6952 162.805 88.6598 163.619 88.5889 164.548C88.5889 165.017 88.518 165.486 88.4648 165.946C88.4117 166.407 88.3585 168.264 88.4028 166.681C88.2235 168.712 87.8345 170.719 87.2421 172.672C86.7459 174.644 86.1611 176.6 85.47 178.521C85.1599 179.406 84.8143 180.29 84.4776 181.175C84.1409 182.061 84.4776 181.087 84.5751 180.946C84.4864 181.193 84.3713 181.432 84.265 181.671C84.0523 182.149 83.8308 182.626 83.6093 183.105C79.1081 192.6 73.1539 201.387 66.8806 209.794C66.0832 210.864 65.2858 211.926 64.4706 212.979C64.0985 213.475 63.7174 213.97 63.3364 214.457C63.4871 214.271 63.9035 213.732 63.2301 214.599C62.9643 214.953 62.6896 215.297 62.4149 215.651C60.7787 217.757 59.1277 219.852 57.4619 221.934C53.9177 226.359 50.4532 230.783 47.0331 235.208C40.384 243.643 34.4898 252.644 29.4184 262.109C24.3679 271.843 20.3718 282.329 18.7858 293.249C17.9419 298.753 17.7604 304.338 18.2453 309.885C18.4225 311.708 18.4491 313.69 19.3263 315.328C20.363 317.301 22.8705 318.168 24.8907 318.699C27.7938 319.406 30.8142 319.487 33.7512 318.938C44.3218 317.168 52.5355 308.399 59.11 300.62C65.6645 292.633 71.7926 284.306 77.4689 275.675C80.2777 271.515 83.0777 267.347 85.9485 263.233C87.4252 261.109 88.9285 259.006 90.4584 256.923C91.1496 255.985 91.8407 255.048 92.5495 254.119C92.7444 253.853 92.9483 253.587 93.1521 253.331C93.1521 253.278 93.6925 252.632 93.3204 253.1C92.9482 253.57 93.5596 252.8 93.6571 252.685C93.9052 252.357 94.171 252.03 94.4279 251.711C97.5109 247.805 100.806 244.071 104.299 240.526C106.023 238.791 107.795 237.114 109.615 235.491C110.403 234.8 111.21 234.111 112.025 233.447C112.486 233.058 112.911 232.677 113.425 232.305C113.726 232.066 115.011 231.075 114.072 231.792C121.311 226.393 129.021 221.654 137.109 217.634C141.185 215.572 145.314 213.634 149.514 211.776C151.676 210.808 153.847 209.858 156.026 208.926L158.986 207.669L159.384 207.501C158.755 207.767 159.473 207.501 159.562 207.421L161.475 206.625C178.603 199.457 196.111 192.635 211.785 182.529C219.789 177.519 227.109 171.497 233.564 164.61C237.544 160.473 240.613 155.551 242.576 150.159C244.155 145.112 244.426 139.747 243.364 134.567C241.504 124.55 235.035 115.445 227.69 108.622C219.716 101.198 210.075 95.658 200.027 91.5521C190.204 87.6411 179.813 85.3369 169.255 84.7294C160.811 84.1538 152.314 84.1458 143.896 83.1276C143.63 83.1276 143.347 83.0746 143.072 83.0217C143.232 83.0217 144.357 83.2075 143.329 83.0217L141.903 82.8088C140.901 82.641 139.9 82.4641 138.908 82.2603C136.973 81.8666 135.062 81.364 133.184 80.7564C132.298 80.4557 131.412 80.1009 130.526 79.7742C129.923 79.5523 131.004 79.96 130.986 79.969C130.745 79.8921 130.513 79.7882 130.295 79.6593C129.843 79.4464 129.409 79.2256 128.949 78.9948C128.125 78.5701 127.318 78.1104 126.53 77.6058L125.457 76.8804C125.24 76.7595 125.038 76.6136 124.855 76.4467C124.988 76.7745 125.741 77.1542 124.97 76.5177C124.199 75.8801 123.659 75.3755 123.047 74.748C122.737 74.4293 122.436 74.1105 122.161 73.7828C121.887 73.456 121.833 73.3941 121.665 73.2082C120.983 72.4468 122.082 73.8447 121.665 73.2791C121.151 72.5087 120.602 71.7833 120.132 70.9869C119.884 70.5882 119.654 70.1725 119.432 69.7568L119.069 69.0404C118.998 68.8805 118.475 67.8363 118.856 68.6067C119.237 69.3761 118.644 68.0491 118.546 67.7834C118.387 67.3497 118.236 66.898 118.103 66.4564C117.783 65.4322 117.517 64.393 117.306 63.3408C117.208 62.8811 117.12 62.4564 117.04 61.9518C116.971 61.688 116.929 61.4182 116.916 61.1464C116.916 61.2793 117.067 62.4654 116.916 61.4122C116.765 60.359 116.703 59.3588 116.641 58.3236C115.631 41.8642 121.63 21.6177 108.109 8.60969C100.134 0.946566 88.6775 -0.469349 78.1689 1.12343C68.9274 2.52136 60.1201 6.68017 52.6419 12.2109C36.498 24.1398 25.2717 41.1128 14.6303 57.819C2.47366 76.9044 -8.91213 96.4544 -19.527 116.471C-30.1419 136.488 -39.977 156.979 -49.0324 177.946C-53.5218 188.334 -57.8221 198.809 -61.9334 209.369C-62.9966 212.094 -60.7726 215.607 -58.0347 216.227C-54.8361 216.961 -52.302 215.253 -51.1678 212.333Z" fill="#FDB8EE"/>
</g>
</g>
</g>
</g>
<defs>
<clipPath id="clip0_41_1763">
<rect width="244" height="197" fill="white" transform="translate(0 0.390137)"/>
</clipPath>
<clipPath id="clip1_41_1763">
<rect width="244" height="197" fill="white" transform="translate(0 0.390137)"/>
</clipPath>
<clipPath id="clip2_41_1763">
<rect width="244" height="197" fill="white" transform="translate(0 0.390137)"/>
</clipPath>
</defs>
</svg>
