<svg width="13" height="26" viewBox="0 0 13 26" fill="none" xmlns="http://www.w3.org/2000/svg">
<g clip-path="url(#clip0_41_418)">
<g clip-path="url(#clip1_41_418)">
<g clip-path="url(#clip2_41_418)">
<g clip-path="url(#clip3_41_418)">
<path d="M6.16064 24.677C5.75521 24.677 5.36245 24.5288 5.05506 24.2595C4.54235 23.8097 4.34741 23.1054 4.55157 22.4548C4.69115 21.8822 4.89415 21.0915 5.11215 20.2402C5.47261 18.8342 5.8717 17.2753 6.09316 16.2874C5.55047 15.9691 4.71133 15.4517 3.51866 14.6281C2.86465 14.1454 1.4361 12.7883 1.04681 11.5686C0.883019 11.0565 0.970105 10.4895 1.27923 10.0512C1.59585 9.60426 2.10856 9.33781 2.65126 9.33781C2.83697 9.33781 3.04575 9.34185 3.26894 9.34646C4.00715 9.36088 4.9253 9.38049 5.70042 9.24611C6.09316 9.17864 6.46112 9.06618 6.85098 8.9468C7.27488 8.8176 7.70973 8.68553 8.18438 8.60941C9.1775 6.25636 9.98896 4.62191 10.6602 3.62303C10.9688 3.07571 11.5588 2.74179 12.1862 2.76197C12.8311 2.7862 13.4136 3.1876 13.6697 3.78393C14.3352 5.3261 15.0884 6.84866 15.9096 8.31701C18.4945 8.31816 20.554 8.75301 22.8096 9.40183C23.4405 9.58292 23.9129 10.125 24.0144 10.7819C24.1153 11.4365 23.8287 12.0957 23.2837 12.4625C21.3897 13.7463 20.1462 14.8357 18.8549 16.363C19.6502 18.4484 19.8821 20.6653 20.0897 22.6382C20.1578 23.2922 19.8746 23.9048 19.3527 24.2583C18.8169 24.6194 18.1404 24.6419 17.5844 24.3229C17.5406 24.297 14.5301 22.5079 12.3322 21.6076C11.3379 22.1036 8.96642 23.3741 6.96402 24.4712C6.71546 24.6067 6.43805 24.677 6.16064 24.677Z" fill="#FBF780"/>
</g>
</g>
</g>
</g>
<defs>
<clipPath id="clip0_41_418">
<rect width="13" height="24.86" fill="white" transform="translate(0 0.969971)"/>
</clipPath>
<clipPath id="clip1_41_418">
<rect width="25" height="24.03" fill="white" transform="translate(0 1.79993)"/>
</clipPath>
<clipPath id="clip2_41_418">
<rect width="25" height="24.03" fill="white" transform="translate(0 1.79993)"/>
</clipPath>
<clipPath id="clip3_41_418">
<rect width="24.9912" height="24.03" fill="white" transform="translate(0.00439453 1.79993)"/>
</clipPath>
</defs>
</svg>
