<svg width="40" height="40" viewBox="0 0 40 40" fill="none" xmlns="http://www.w3.org/2000/svg">
<g clip-path="url(#clip0_41_1847)">
<g clip-path="url(#clip1_41_1847)">
<path d="M29.5803 6.41229C31.8203 4.18965 33.5661 3.88397 34.8178 5.49524C36.0694 7.10652 35.6393 8.90254 33.5274 10.8833C28.6182 15.7846 24.8171 19.5338 22.1242 22.1309C21.109 23.11 16.7991 25.3584 12.9419 28.4506C9.08459 31.5428 5.22145 35.8607 4.55275 36.2172C3.88405 36.5736 3.47737 35.8824 3.78302 35.4979C5.82668 32.9271 10.0253 28.8805 12.0994 26.3472C14.1736 23.8139 15.5133 20.6342 18.464 17.5665C20.3582 15.5973 24.0636 11.8792 29.5803 6.41229Z" fill="white" stroke="white" stroke-width="0.555556"/>
<path fill-rule="evenodd" clip-rule="evenodd" d="M32.5217 4.24254C33.0155 4.15609 33.4738 4.2072 33.8973 4.39165C34.3102 4.57151 34.6918 4.8804 35.0371 5.32494C35.7209 6.20517 35.9386 7.13625 35.7041 8.11551C35.4791 9.05475 34.8238 10.0483 33.7237 11.08C28.8129 15.9828 25.0107 19.7331 22.317 22.331C21.8857 22.7469 20.8722 23.391 19.5492 24.226C17.7432 25.3658 15.3528 26.8739 13.1156 28.6674C10.7782 30.5412 8.43907 32.8669 6.8144 34.4817C5.73268 35.5569 4.95293 36.3187 4.6834 36.4624C4.59164 34.2477 6.01593 32.542 7.55601 30.9007L7.94263 30.4914C9.42966 28.9237 10.8982 27.376 11.8845 26.1713C12.7178 25.1536 13.4309 24.0303 14.1797 22.8523C15.2978 21.0932 16.4939 19.2141 18.2638 17.3741C19.3064 16.2902 20.8973 14.6768 23.0367 12.5339L24.5793 10.9918C25.9898 9.58434 27.5916 7.99209 29.3846 6.21522C30.559 5.04998 31.6088 4.4024 32.5217 4.24254Z" stroke="#43517F" stroke-width="0.555556"/>
<path d="M6.19012 34.7102C5.36408 35.5291 4.77768 36.0973 4.55275 36.2172C3.88405 36.5736 3.47737 35.8824 3.78302 35.4979C4.19777 34.9762 4.70127 34.3937 5.25775 33.7754C5.57148 33.8373 6.01943 34.3224 6.19012 34.7102Z" fill="#EEF2FF" stroke="white" stroke-width="0.555556"/>
<path fill-rule="evenodd" clip-rule="evenodd" d="M5.05125 33.5896C5.68329 33.5763 6.23816 34.1299 6.44432 34.5983C5.52902 35.7568 4.91639 36.3381 4.68338 36.4623C3.89412 34.9248 4.43394 34.2755 5.05125 33.5896Z" stroke="#3E4095" stroke-width="0.555556"/>
<path fill-rule="evenodd" clip-rule="evenodd" d="M29.3049 9.8833C29.6932 9.8833 30.0502 10.0186 30.3056 10.257C30.5435 10.4791 30.6902 10.7909 30.6902 11.158C30.6902 11.5484 30.5001 11.9301 30.2199 12.2158C29.9426 12.4985 29.5726 12.6921 29.191 12.6921C28.8125 12.6921 28.473 12.5493 28.2296 12.3082C27.99 12.0708 27.8453 11.7391 27.8453 11.3613C27.8453 10.9743 28.0235 10.6069 28.2928 10.3347C28.5614 10.0633 28.9239 9.8833 29.3049 9.8833Z" fill="#EEF2FF" stroke="#3E4095" stroke-width="0.555556"/>
<path fill-rule="evenodd" clip-rule="evenodd" d="M32.6404 4.79488C32.9881 4.73689 33.3423 4.75987 33.6878 4.91129C34.003 5.04948 34.3086 5.29276 34.5984 5.66579C35.2179 6.46333 35.3249 7.23842 35.1702 7.93599C34.9357 8.99388 34.1335 9.8717 33.6167 10.3979C33.444 10.2677 33.3201 10.1373 33.1774 9.98873C32.8076 9.60378 32.3216 9.09937 31.9566 8.57588C31.5345 7.97054 30.9932 7.26828 30.5319 6.79724C30.6536 5.80424 31.6208 4.96501 32.6404 4.79488Z" fill="#3E4095" stroke="white" stroke-width="0.555556"/>
<path fill-rule="evenodd" clip-rule="evenodd" d="M21.4677 17.4459L22.8042 19.0791C22.8734 19.1637 22.9981 19.1761 23.0827 19.1069C23.0877 19.1028 23.0925 19.0984 23.0971 19.0939L27.4423 14.7606C27.5136 14.6895 27.5201 14.5762 27.4575 14.4973L26.1382 12.8363C26.0702 12.7507 25.9457 12.7364 25.8601 12.8044C25.8542 12.8091 25.8486 12.8141 25.8432 12.8194L21.4809 17.1805C21.409 17.2524 21.4033 17.3671 21.4677 17.4459Z" fill="#EEF2FF" stroke="#3E4095" stroke-width="0.555556"/>
</g>
</g>
<defs>
<clipPath id="clip0_41_1847">
<rect width="40" height="40" fill="white"/>
</clipPath>
<clipPath id="clip1_41_1847">
<rect width="40" height="40" fill="white"/>
</clipPath>
</defs>
</svg>
