<svg width="40" height="40" viewBox="0 0 40 40" fill="none" xmlns="http://www.w3.org/2000/svg">
<g clip-path="url(#clip0_41_1831)">
<g clip-path="url(#clip1_41_1831)">
<path fill-rule="evenodd" clip-rule="evenodd" d="M9.81676 5.61801C11.9262 4.50658 14.2856 3.82525 16.2244 4.30971C16.8356 4.59766 17.5706 4.93849 18.4228 5.33371C24.0818 7.95797 34.7029 12.9749 35.1917 15.8535C36.2779 22.2503 35.181 29.4321 34.8769 30.2142C33.8922 32.7471 32.1531 34.3678 30.2674 35.2804C27.8195 36.465 25.1266 36.4489 23.4942 35.6957C21.9942 35.0036 18.2418 32.7654 14.4537 30.4453L13.7436 30.0096L12.9438 29.5176C10.8392 28.2206 8.81614 26.9597 7.26583 25.9934C6.76246 25.6796 6.30895 25.3969 5.91869 25.1542C5.11472 24.6541 4.72384 19.4521 4.72384 18.9264C4.72384 18.5957 5.01519 18.1778 5.71909 17.7041C4.76204 16.9962 4.32211 16.476 4.29137 16.1717C4.16437 14.9146 4.05038 12.4369 4.29235 10.6433C4.43595 9.57885 6.84628 7.18314 9.81676 5.61801Z" fill="white" stroke="#43517F" stroke-width="0.5"/>
<path d="M6.32861 17.8306L7.9681 18.9732" stroke="#979797" stroke-width="0.555556" stroke-linecap="square"/>
<path d="M13.2344 22.749C17.8746 25.6783 20.8886 27.4669 22.2764 28.1146C23.6642 28.7624 25.3673 28.9141 27.3858 28.5698" stroke="#979797" stroke-width="0.555556" stroke-linecap="square"/>
<path fill-rule="evenodd" clip-rule="evenodd" d="M12.3399 24.7276C13.6884 24.148 13.0858 21.5477 12.1696 20.2542C11.2535 18.9608 9.71193 17.9033 8.73495 18.4018C7.75797 18.9003 7.58554 20.1749 8.26392 21.854C8.94231 23.533 10.9914 25.3072 12.3399 24.7276Z" fill="#3E4095"/>
<path fill-rule="evenodd" clip-rule="evenodd" d="M16.1638 4.55214C11.6389 3.42143 4.77951 8.90194 4.5401 10.6766C4.41368 11.6137 4.38574 12.7395 4.40602 13.7765C4.42414 14.7034 20.4193 23.4868 22.2526 24.0947C26.6334 25.5472 31.2629 24.3443 34.744 20.187C35.7338 19.005 35.2269 17.5544 34.9452 15.8952C34.3874 12.6104 20.4114 6.59294 16.1638 4.55214Z" fill="#3E4095"/>
<path d="M4.49942 11.1025C4.2996 12.7137 19.7344 20.5497 22.7382 22.145C25.9162 23.8329 35.413 22.1455 34.9452 15.8954" stroke="black" stroke-opacity="0.25" stroke-width="0.555556"/>
<path d="M6.16584 17.7178C5.5698 18.1331 5.30445 18.6036 5.36979 19.1292C5.43513 19.6549 6.21322 20.0878 7.70407 20.4279" stroke="#979797" stroke-width="0.555556" stroke-linecap="square"/>
<path fill-rule="evenodd" clip-rule="evenodd" d="M8.31427 11.7945C8.31427 10.7043 15.2226 6.30542 16.6615 6.30542C18.1004 6.30542 30.244 12.4756 29.8748 13.2679C29.3922 14.3038 22.9625 19.0727 21.3692 19.0727C20.3698 19.0727 8.31427 12.8847 8.31427 11.7945Z" fill="#7E80C7" stroke="black" stroke-opacity="0.25" stroke-width="0.555556"/>
<path fill-rule="evenodd" clip-rule="evenodd" d="M27.3858 28.5697C28.0591 28.1761 30.8964 25.2647 32.2998 24.1096C33.7033 22.9545 35.0255 22.7338 35.413 22.4902C35.1305 22.7109 34.5296 26.1197 33.576 27.2266C31.3994 29.753 27.733 29.4177 27.3858 28.5697Z" fill="black" fill-opacity="0.5" stroke="#979797" stroke-width="0.555556"/>
</g>
</g>
<defs>
<clipPath id="clip0_41_1831">
<rect width="40" height="40" fill="white"/>
</clipPath>
<clipPath id="clip1_41_1831">
<rect width="40" height="40" fill="white"/>
</clipPath>
</defs>
</svg>
