<svg width="33" height="25" viewBox="0 0 33 25" fill="none" xmlns="http://www.w3.org/2000/svg">
<path fill-rule="evenodd" clip-rule="evenodd" d="M16.5294 0.686279C18.5014 0.686279 20.2974 1.42873 21.6428 2.64603C23.1421 4.00252 24.0822 5.94882 24.0784 8.11183L30.9412 8.11128C31.3202 8.11128 31.6634 8.26491 31.9117 8.51329C32.1601 8.76167 32.3137 9.10481 32.3137 9.48383V22.9162C32.3137 23.2952 32.1601 23.6383 31.9117 23.8867C31.6634 24.1351 31.3202 24.2887 30.9412 24.2887H2.11767C1.73865 24.2887 1.39551 24.1351 1.14713 23.8867C0.898745 23.6383 0.745117 23.2952 0.745117 22.9162V9.48383C0.745117 9.10481 0.898745 8.76167 1.14713 8.51329C1.39551 8.26491 1.73865 8.11128 2.11761 8.11128L8.98047 8.11183C8.97668 5.94882 9.91678 4.00252 11.4161 2.64603C12.7615 1.42873 14.5574 0.686279 16.5294 0.686279Z" fill="white" stroke="#4A4A4A" stroke-width="1.37255"/>
</svg>
