<svg width="24" height="23" viewBox="0 0 24 23" fill="none" xmlns="http://www.w3.org/2000/svg">
<path d="M5.66064 22.5771C5.25521 22.5771 4.86245 22.4289 4.55506 22.1595C4.04235 21.7097 3.84741 21.0054 4.05157 20.3549C4.19115 19.7822 4.39415 18.9915 4.61215 18.1403C4.97261 16.7342 5.3717 15.1754 5.59316 14.1874C5.05047 13.8691 4.21133 13.3518 3.01866 12.5281C2.36465 12.0454 0.9361 10.6884 0.546809 9.46862C0.383019 8.95648 0.470105 8.38956 0.77923 7.95125C1.09585 7.50428 1.60856 7.23784 2.15126 7.23784C2.33697 7.23784 2.54575 7.24187 2.76894 7.24649C3.50715 7.26091 4.4253 7.28051 5.20042 7.14614C5.59316 7.07866 5.96112 6.9662 6.35098 6.84682C6.77488 6.71763 7.20973 6.58556 7.68438 6.50943C8.6775 4.15638 9.48896 2.52194 10.1602 1.52305C10.4688 0.975738 11.0588 0.641814 11.6862 0.661999C12.3311 0.686222 12.9136 1.08762 13.1697 1.68396C13.8352 3.22612 14.5884 4.74868 15.4096 6.21703C17.9945 6.21819 20.054 6.65303 22.3096 7.30185C22.9405 7.48294 23.4129 8.02507 23.5144 8.68196C23.6153 9.33654 23.3287 9.99574 22.7837 10.3625C20.8897 11.6463 19.6462 12.7357 18.3549 14.263C19.1502 16.3484 19.3821 18.5653 19.5897 20.5383C19.6578 21.1923 19.3746 21.8048 18.8527 22.1584C18.3169 22.5194 17.6404 22.5419 17.0844 22.223C17.0406 22.197 14.0301 20.4079 11.8322 19.5077C10.8379 20.0037 8.46642 21.2742 6.46402 22.3712C6.21546 22.5067 5.93805 22.5771 5.66064 22.5771Z" fill="#00A859"/>
</svg>
