<svg width="1932" height="161" viewBox="0 0 1932 161" fill="none" xmlns="http://www.w3.org/2000/svg">
<path fill-rule="evenodd" clip-rule="evenodd" d="M1925 0H5.00003V146.148H0.962463L5.00003 149.28V151.529H7.9008L20.1122 161L31.649 152.053L43.1858 161L54.7226 152.053L66.2594 161L77.7962 152.053L89.333 161L100.87 152.053L112.407 161L123.943 152.053L135.48 161L147.017 152.053L158.554 161L170.091 152.053L181.627 161L193.164 152.053L204.701 161L216.238 152.053L227.775 161L239.311 152.053L250.848 161L262.385 152.053L273.922 161L285.459 152.053L296.995 161L308.532 152.053L320.069 161L331.606 152.053L343.143 161L354.679 152.053L366.216 161L377.753 152.053L389.29 161L400.827 152.053L412.363 161L423.9 152.053L435.437 161L446.974 152.053L458.511 161L470.047 152.053L481.584 161L493.121 152.053L504.658 161L516.195 152.053L527.731 161L539.268 152.053L550.805 161L562.342 152.053L573.879 161L585.415 152.053L596.952 161L608.489 152.053L620.026 161L631.563 152.053L643.099 161L654.636 152.053L666.173 161L677.71 152.053L689.247 161L700.783 152.053L712.32 161L723.857 152.053L735.394 161L746.931 152.053L758.467 161L770.004 152.053L781.541 161L793.078 152.053L804.615 161L816.151 152.053L827.688 161L839.225 152.053L850.762 161L862.299 152.053L873.835 161L885.372 152.053L896.909 161L908.446 152.053L919.983 161L931.519 152.053L943.056 161L954.593 152.053L966.13 161L977.667 152.053L989.203 161L1000.74 152.053L1012.28 161L1023.81 152.053L1035.35 161L1046.89 152.053L1058.42 161L1069.96 152.053L1081.5 161L1093.03 152.053L1104.57 161L1116.11 152.053L1127.64 161L1139.18 152.053L1150.72 161L1162.26 152.053L1173.79 161L1185.33 152.053L1196.87 161L1208.4 152.053L1219.94 161L1231.48 152.053L1243.01 161L1254.55 152.053L1266.09 161L1277.62 152.053L1289.16 161L1300.7 152.053L1312.23 161L1323.77 152.053L1335.31 161L1346.84 152.053L1358.38 161L1369.92 152.053L1381.45 161L1392.99 152.053L1404.53 161L1416.06 152.053L1427.6 161L1439.14 152.053L1450.68 161L1462.21 152.053L1473.75 161L1485.29 152.053L1496.82 161L1508.36 152.053L1519.9 161L1531.43 152.053L1542.97 161L1554.51 152.053L1566.04 161L1577.58 152.053L1589.12 161L1600.65 152.053L1612.19 161L1623.73 152.053L1635.26 161L1646.8 152.053L1658.34 161L1669.87 152.053L1681.41 161L1692.95 152.053L1704.48 161L1716.02 152.053L1727.56 161L1739.1 152.053L1750.63 161L1762.17 152.053L1773.71 161L1785.24 152.053L1796.78 161L1808.32 152.053L1819.85 161L1831.39 152.053L1842.93 161L1854.46 152.053L1866 161L1877.54 152.053L1889.07 161L1900.61 152.053L1912.15 161L1924.36 151.529H1925V151.032L1931.3 146.148H1925V0Z" fill="#00A859"/>
</svg>
