<svg xmlns="http://www.w3.org/2000/svg" width="541" height="536" viewBox="0 0 541 536" fill="none"><path d="M33.9986 347.889C66.9166 308.825 80.4047 285.334 47.0367 246.039C-63.0093 116.439 40.9418 16.1335 169.803 95.1445C232.284 133.454 276.034 52.1895 276.034 52.1895C352.334 -69.2185 521.608 47.7715 483.087 165.66C470.534 166.107 458.215 169.182 446.926 174.686C435.636 180.19 425.626 188.001 417.543 197.615C409.46 207.229 403.484 218.432 400.001 230.499C396.518 242.566 395.604 255.23 397.32 267.673C399.036 280.115 403.344 292.059 409.964 302.733C416.584 313.407 425.369 322.574 435.752 329.641C446.136 336.708 457.886 341.518 470.245 343.761C482.603 346.003 495.294 345.629 507.499 342.66C532.988 431.723 443.939 493.36 351.272 454.86C294.828 431.401 255.4 447.305 204.782 494.874C174.648 523.191 141.751 535.111 111.344 535.111C24.5608 535.114 -41.9454 438.009 33.9986 347.889ZM431.999 255.389C432.008 244.646 435.202 234.146 441.178 225.218C447.153 216.29 455.642 209.333 465.57 205.229C475.499 201.124 486.421 200.054 496.957 202.156C507.493 204.258 517.169 209.436 524.763 217.036C532.356 224.636 537.526 234.317 539.618 244.855C541.711 255.393 540.632 266.314 536.518 276.239C532.405 286.164 525.441 294.646 516.507 300.614C507.574 306.582 497.071 309.767 486.328 309.766C471.913 309.76 458.091 304.027 447.902 293.83C437.714 283.632 431.994 269.805 432 255.39L431.999 255.389Z" fill="#7F7F82"></path></svg>