<svg xmlns="http://www.w3.org/2000/svg" width="541" height="506" viewBox="0 0 541 506" fill="none"><path d="M474.844 253.38C472.24 252.897 469.726 252.358 467.301 251.763C471.32 246.04 475.751 240.618 480.558 235.539C498.3 216.698 521.895 170.622 498.973 131.711C474.285 89.7988 435.198 88.3337 407.861 112.982C412.154 94.5417 412.678 74.4408 399.543 49.9818C372.284 -0.777248 295.517 -28.2113 248.214 48.1407C218.985 95.3177 175.172 118.38 120.061 121.403C84.589 123.348 17.522 146.835 3.489 207.22C-12.195 274.72 28.7579 313.58 82.1369 312.072C110.392 311.272 130.169 318.684 143.988 329.956C132.736 363.356 99.096 387.856 114.237 440.334C129.997 494.96 198.36 537.361 259.843 473.523C297.833 434.078 344.887 420.923 398.68 429.448C433.304 434.935 502.88 426.198 528.95 370.858C558.092 309.003 526.652 263.01 474.844 253.38Z" fill="#101010"></path></svg>