<svg xmlns="http://www.w3.org/2000/svg" width="541" height="676" viewBox="0 0 541 676" fill="none"><path d="M348.929 674.181C347.479 673.943 346.181 673.143 345.316 671.955C344.451 670.767 344.089 669.286 344.307 667.833C344.525 666.379 345.306 665.07 346.481 664.188C347.657 663.307 349.133 662.923 350.589 663.12C372.37 666.397 393.656 659.232 413.86 641.82C423.299 633.652 431.546 624.2 438.36 613.74C439.128 612.473 440.368 611.563 441.808 611.211C443.247 610.858 444.767 611.091 446.034 611.86C447.301 612.628 448.211 613.868 448.564 615.308C448.917 616.747 448.683 618.267 447.915 619.534C440.577 630.926 431.648 641.211 421.4 650.077C402.386 666.546 381.565 675.053 360.569 675.053C356.673 675.053 352.782 674.761 348.929 674.181ZM292.257 657.794L54.2646 419.194C53.2162 418.146 52.6275 416.724 52.6274 415.242C52.6273 413.759 53.2159 412.337 54.2642 411.289C55.3124 410.24 56.7342 409.651 58.2168 409.651C59.6994 409.651 61.1215 410.24 62.1699 411.288L300.162 649.888C300.697 650.404 301.125 651.02 301.419 651.703C301.714 652.385 301.869 653.12 301.876 653.863C301.883 654.606 301.742 655.343 301.461 656.031C301.18 656.719 300.764 657.344 300.238 657.87C299.713 658.395 299.087 658.81 298.399 659.091C297.711 659.372 296.974 659.513 296.23 659.505C295.487 659.497 294.753 659.342 294.071 659.047C293.389 658.752 292.772 658.324 292.257 657.788V657.794ZM306.144 626.321L77.8438 397.744C64.5822 384.461 57.1338 366.458 57.1338 347.687C57.1338 328.917 64.5822 310.914 77.8438 297.63L108.51 266.924C113.958 261.467 120.429 257.137 127.553 254.183C134.676 251.229 142.312 249.708 150.024 249.708C157.736 249.708 165.372 251.229 172.495 254.183C179.619 257.137 186.09 261.467 191.538 266.924C193.79 269.174 196.844 270.436 200.027 270.434C203.21 270.432 206.262 269.166 208.511 266.914C210.761 264.662 212.023 261.608 212.021 258.425C212.02 255.242 210.753 252.19 208.501 249.94L144.641 186.002C128.419 169.8 119.299 147.818 119.285 124.891C119.271 101.964 128.366 79.9707 144.568 63.7493C160.77 47.5279 182.752 38.4071 205.679 38.3934C228.606 38.3797 250.599 47.4742 266.821 63.6763L472.932 270.04C489.134 286.272 498.234 308.269 498.234 331.204C498.234 354.138 489.134 376.136 472.932 392.367L442.852 422.483C438.783 426.56 433.949 429.795 428.628 432.002C423.307 434.209 417.603 435.345 411.843 435.345C406.082 435.345 400.379 434.209 395.058 432.002C389.737 429.795 384.903 426.56 380.834 422.483C379.719 421.37 378.395 420.486 376.938 419.884C375.482 419.282 373.921 418.972 372.345 418.973C369.161 418.975 366.109 420.242 363.86 422.494C361.61 424.747 360.348 427.8 360.35 430.984C360.352 434.167 361.618 437.219 363.871 439.468L428.319 503.994C441.579 517.279 449.026 535.281 449.026 554.051C449.026 572.821 441.579 590.824 428.319 604.108L406.132 626.321C399.571 632.894 391.778 638.108 383.199 641.666C374.621 645.224 365.424 647.055 356.137 647.055C346.85 647.055 337.654 645.224 329.076 641.666C320.497 638.108 312.704 632.894 306.143 626.321H306.144ZM456.705 599.909C455.417 599.174 454.473 597.958 454.081 596.528C453.688 595.098 453.879 593.571 454.611 592.281C466.069 572.102 467.027 553.963 464.104 543.717C463.902 543.012 463.841 542.274 463.925 541.545C464.008 540.816 464.235 540.111 464.591 539.469C464.947 538.828 465.426 538.263 466 537.807C466.575 537.351 467.234 537.012 467.939 536.81C468.644 536.609 469.383 536.548 470.111 536.631C470.84 536.715 471.545 536.941 472.187 537.297C472.828 537.653 473.393 538.132 473.849 538.707C474.305 539.281 474.644 539.94 474.846 540.645C479.44 556.745 475.507 578.114 464.323 597.812C463.961 598.451 463.477 599.011 462.898 599.462C462.319 599.913 461.657 600.246 460.95 600.441C460.242 600.636 459.503 600.69 458.775 600.599C458.047 600.508 457.344 600.275 456.706 599.912L456.705 599.909ZM537.483 518.496C534.801 515.812 535.525 512.414 536.104 509.683C536.694 506.909 536.984 505.136 535.568 503.719C534.152 502.302 532.381 502.591 529.609 503.181C526.884 503.762 523.49 504.481 520.809 501.802C518.128 499.123 518.85 495.72 519.43 492.989C520.022 490.215 520.311 488.442 518.896 487.025C517.481 485.608 515.709 485.897 512.938 486.487C510.209 487.068 506.816 487.787 504.138 485.108C501.46 482.429 502.179 479.026 502.759 476.295C503.349 473.519 503.638 471.746 502.221 470.329C500.804 468.912 499.034 469.201 496.263 469.791C493.536 470.372 490.143 471.091 487.463 468.41C487.171 468.119 487.007 467.723 487.007 467.31C487.007 466.898 487.171 466.502 487.463 466.21C487.755 465.919 488.15 465.755 488.563 465.755C488.976 465.755 489.371 465.919 489.663 466.21C491.079 467.627 492.85 467.338 495.621 466.748C498.348 466.167 501.741 465.448 504.421 468.129C507.101 470.81 506.379 474.211 505.8 476.942C505.208 479.716 504.92 481.489 506.336 482.908C507.752 484.327 509.523 484.034 512.295 483.444C515.02 482.863 518.414 482.144 521.095 484.825C523.776 487.506 523.053 490.907 522.472 493.636C521.884 496.412 521.592 498.185 523.01 499.602C524.428 501.019 526.195 500.73 528.968 500.14C531.695 499.559 535.088 498.84 537.768 501.519C540.448 504.198 539.727 507.601 539.147 510.332C538.555 513.106 538.268 514.879 539.681 516.296C539.831 516.439 539.951 516.61 540.035 516.8C540.118 516.99 540.162 517.195 540.165 517.402C540.168 517.609 540.13 517.815 540.052 518.007C539.974 518.2 539.858 518.374 539.712 518.521C539.565 518.668 539.391 518.784 539.199 518.862C539.007 518.941 538.802 518.98 538.594 518.978C538.387 518.975 538.182 518.932 537.992 518.849C537.802 518.766 537.63 518.646 537.487 518.496H537.483ZM482.113 413.982C481.058 412.94 480.459 411.523 480.448 410.04C480.437 408.557 481.015 407.131 482.054 406.073C490.565 397.431 497.627 387.472 502.967 376.581C503.62 375.252 504.775 374.236 506.178 373.758C507.58 373.28 509.115 373.379 510.445 374.032C511.774 374.686 512.79 375.841 513.268 377.243C513.746 378.646 513.647 380.181 512.994 381.51C507.127 393.481 499.367 404.426 490.012 413.923C489.497 414.446 488.885 414.863 488.209 415.149C487.533 415.435 486.808 415.585 486.074 415.591C485.34 415.596 484.612 415.457 483.933 415.181C483.253 414.905 482.634 414.498 482.112 413.982H482.113ZM514.65 362.805C513.218 362.419 511.999 361.48 511.259 360.195C510.519 358.91 510.32 357.383 510.705 355.951C521.244 316.675 510.267 274.465 482.055 245.791L302.772 63.5823C302.257 63.0597 301.849 62.4407 301.573 61.7606C301.297 61.0806 301.157 60.3527 301.162 59.6187C301.172 58.1364 301.771 56.7188 302.826 55.6778C303.882 54.6368 305.308 54.0577 306.79 54.068C308.272 54.0782 309.69 54.6769 310.731 55.7323L490.012 237.941C520.995 269.43 533.057 315.763 521.493 358.855C521.304 359.565 520.977 360.23 520.53 360.812C520.084 361.395 519.526 361.884 518.891 362.251C518.255 362.618 517.553 362.856 516.825 362.951C516.097 363.046 515.358 362.997 514.649 362.805H514.65ZM0.442871 222.005C0.450385 215.749 2.31224 209.636 5.79346 204.437C9.27467 199.239 14.2189 195.19 20.001 192.801C25.7831 190.412 32.1438 189.791 38.2788 191.016C44.4139 192.241 50.0481 195.257 54.4692 199.684C58.8904 204.11 61.8999 209.748 63.1177 215.885C64.3354 222.021 63.7064 228.381 61.3105 234.16C58.9147 239.939 54.8596 244.879 49.6572 248.354C44.4549 251.829 38.3392 253.683 32.083 253.683C23.6867 253.678 15.6361 250.337 9.70264 244.397C3.7692 238.456 0.438807 230.402 0.443848 222.005H0.442871ZM87.127 158.005C75.306 114.741 87.3139 68.1993 118.461 36.5443C129.738 24.9737 143.222 15.7828 158.114 9.5154C173.006 3.24802 189.004 0.0315229 205.161 0.0562943C206.644 0.0562943 208.066 0.645469 209.115 1.69417C210.163 2.74288 210.753 4.16518 210.753 5.64827C210.753 7.13136 210.163 8.55373 209.115 9.60244C208.066 10.6511 206.644 11.2403 205.161 11.2403C190.486 11.2216 175.957 14.146 162.433 19.8407C148.909 25.5353 136.664 33.8845 126.423 44.3943C98.0609 73.2203 87.1347 115.622 97.9077 155.054C98.114 155.766 98.1767 156.511 98.0923 157.247C98.0079 157.983 97.778 158.695 97.416 159.341C97.054 159.987 96.5673 160.555 95.9839 161.011C95.4004 161.467 94.732 161.803 94.0176 161.999C93.3032 162.194 92.5568 162.246 91.8223 162.151C91.0877 162.055 90.3795 161.815 89.7388 161.443C89.098 161.071 88.5379 160.576 88.0903 159.986C87.6428 159.396 87.3168 158.722 87.1318 158.005H87.127ZM283.893 44.3943C271.05 31.2971 255.166 21.5808 237.658 16.1113C236.257 15.6608 235.091 14.6766 234.411 13.372C233.731 12.0674 233.593 10.5474 234.025 9.14138C234.458 7.73533 235.428 6.55644 236.724 5.86013C238.02 5.16382 239.537 5.00615 240.949 5.42128C260.223 11.4377 277.709 22.1293 291.849 36.5433C292.364 37.0659 292.772 37.6849 293.048 38.3649C293.324 39.045 293.464 39.7729 293.458 40.5069C293.453 41.2409 293.304 41.9666 293.019 42.6428C292.733 43.319 292.317 43.9323 291.794 44.4478C291.272 44.9632 290.653 45.3707 289.973 45.6469C289.293 45.9231 288.565 46.0627 287.831 46.0576C287.097 46.0526 286.371 45.903 285.695 45.6174C285.019 45.3318 284.405 44.9159 283.89 44.3933L283.893 44.3943Z" fill="#7F7F82"></path></svg>