<svg xmlns="http://www.w3.org/2000/svg" width="541" height="379" viewBox="0 0 541 379" fill="none"><path d="M49.7773 361.13C39.9243 345.443 41.6683 326.615 53.6713 319.076L110.882 283.142C99.2643 286.951 84.4203 280.181 75.7153 266.322C66.5213 251.682 67.4243 234.308 77.3423 225.922L46.7933 245.109C34.7933 252.648 17.0713 246.043 7.21928 230.356C-2.63272 214.669 -0.889682 195.842 11.1133 188.302L304.813 3.83093C316.813 -3.70707 334.535 2.89691 344.387 18.5829C353.582 33.2219 352.677 50.5959 342.762 58.9829L373.31 39.7959C385.31 32.2569 403.032 38.8619 412.884 54.5489C422.736 70.2359 420.993 89.0629 408.99 96.6029L351.78 132.536C363.398 128.726 378.24 135.497 386.945 149.356C396.138 163.995 395.235 181.368 385.319 189.756L494.873 120.946C506.873 113.407 524.594 120.011 534.447 135.698C544.3 151.385 542.556 170.213 530.553 177.752L236.853 362.224C224.853 369.762 207.132 363.158 197.279 347.471C188.086 332.833 188.989 315.459 198.905 307.071L89.3513 375.881C86.0042 377.958 82.1352 379.039 78.1963 378.999C68.0273 379.001 56.8653 372.416 49.7773 361.13Z" fill="#7F7F82"></path></svg>