<svg xmlns="http://www.w3.org/2000/svg" width="540" height="462" viewBox="0 0 540 462" fill="none"><path d="M229.261 461.74C207.478 460.625 186.136 455.179 166.483 445.72C133.475 429.426 89.0236 409.612 97.3826 327.267C102.663 288.958 111.465 240.08 50.2906 196.926C50.2906 196.926 21.2437 175.349 20.8037 135.278C20.3637 95.2073 65.6946 57.7783 111.465 64.3833C136.111 68.3463 166.919 96.9683 190.686 120.306C217.533 145.846 260.663 194.723 366.729 196.926C424.829 194.284 486.439 172.267 498.322 236.558C500.963 268.702 497.882 303.929 445.949 340.918C413.444 363.406 381.21 386.711 356.934 411.258C325.386 443.158 282.84 461.999 238.29 461.998C235.291 461.999 232.281 461.913 229.261 461.74ZM358.517 433.39C358.517 433.39 389.325 409.318 396.367 401.69C404.582 392.296 415.439 389.068 411.038 404.038C406.637 419.008 391.966 429.871 381.697 434.862C376.219 437.524 367.653 439.769 362.097 439.768C357.239 439.764 354.684 438.047 358.517 433.39ZM43.2516 394.199C26.5266 375.264 26.9666 374.825 16.4056 360.293C16.4056 360.293 -1.63939 336.954 0.120611 293.361C1.88061 254.171 29.1676 219.383 55.1336 264.738C72.7336 295.562 69.6576 316.258 69.6576 344.879C70.6456 374.547 74.1036 406.189 61.7456 406.184C57.5976 406.184 51.6606 402.613 43.2516 394.2V394.199ZM428.101 384.604C427.499 384.231 427.02 383.689 426.725 383.045C426.43 382.401 426.331 381.685 426.441 380.985C426.864 377.417 428.429 368.885 433.923 364.985C440.964 359.995 449.767 362.05 444.192 371.443C440.015 378.481 434.027 385.025 429.805 385.025C429.21 385.034 428.623 384.889 428.101 384.605V384.604ZM519.01 195.311C512.23 193.123 510.177 192.239 507.264 186.826C503.783 180.359 502.94 172.646 505.773 165.869C506.581 163.731 507.841 161.792 509.467 160.186C511.094 158.579 513.048 157.342 515.196 156.56C528.396 151.86 541.602 160.96 539.842 177.697C538.433 191.097 531.757 196.213 524.481 196.212C522.621 196.199 520.775 195.895 519.01 195.312V195.311ZM245.556 133.665C219.149 113.996 207.706 100.786 201.251 92.5653C194.796 84.3443 180.126 74.0723 166.336 70.2543C155.54 66.0797 146.015 59.1713 138.694 50.2064C134.573 45.2218 132.432 38.8953 132.677 32.4329C132.922 25.9706 135.537 19.8244 140.023 15.1663C149.37 5.60132 166.3 -1.72664 192.448 1.26636C231.139 5.02936 268.107 18.6404 296.148 58.5554C301.557 66.1006 305.639 74.5132 308.22 83.4313C311.796 96.2703 311.576 109.149 300.133 131.608C294.649 139.755 286.342 145.642 275.37 145.641C266.967 145.643 257.006 142.193 245.556 133.665ZM316.556 40.8994C306.58 40.0194 305.113 38.2573 300.126 31.7993C300.126 31.7993 296.018 22.6993 300.126 17.1213C304.234 11.5433 321.544 15.0653 328.292 24.4603C332.802 30.9453 327.026 40.9524 317.722 40.9514C317.343 40.9514 316.954 40.9344 316.56 40.8994H316.556Z" fill="#7F7F82"></path></svg>