<svg xmlns="http://www.w3.org/2000/svg" width="540" height="540" viewBox="0 0 540 540" fill="none"><path d="M203.966 512.591C202.259 510.885 201.301 508.57 201.301 506.157C201.301 503.743 202.259 501.429 203.966 499.722C205.672 498.016 207.987 497.057 210.4 497.057C212.814 497.057 215.128 498.016 216.835 499.722C223.788 506.715 232.06 512.258 241.17 516.032C250.28 519.806 260.049 521.735 269.91 521.708C279.771 521.735 289.54 519.806 298.65 516.032C307.761 512.258 316.032 506.714 322.986 499.721L499.681 323.011C513.737 308.922 521.63 289.833 521.63 269.931C521.63 250.03 513.737 230.941 499.681 216.851C498.836 216.006 498.165 215.003 497.708 213.899C497.251 212.795 497.015 211.611 497.015 210.416C497.015 209.221 497.251 208.038 497.708 206.934C498.165 205.829 498.836 204.826 499.681 203.981C501.387 202.275 503.702 201.317 506.115 201.317C508.528 201.317 510.842 202.275 512.549 203.981C530.012 221.487 539.82 245.204 539.82 269.931C539.82 294.658 530.012 318.375 512.549 335.881L335.849 512.59C327.21 521.277 316.934 528.165 305.616 532.854C294.297 537.543 282.161 539.941 269.91 539.908C257.658 539.942 245.521 537.544 234.201 532.855C222.882 528.167 212.605 521.279 203.966 512.591ZM222.884 464.703L75.156 316.963C62.6834 304.489 55.6763 287.572 55.6763 269.932C55.6763 252.292 62.6834 235.375 75.156 222.901L222.884 75.1621C229.059 68.986 236.39 64.0869 244.459 60.7444C252.528 57.4018 261.176 55.6814 269.91 55.6814C278.644 55.6814 287.292 57.4018 295.361 60.7444C303.429 64.0869 310.761 68.986 316.936 75.1621L464.665 222.901C477.137 235.375 484.144 252.292 484.144 269.932C484.144 287.572 477.137 304.489 464.665 316.963L316.936 464.703C310.767 470.888 303.438 475.793 295.367 479.136C287.297 482.479 278.646 484.194 269.911 484.183C261.175 484.194 252.524 482.479 244.453 479.136C236.383 475.793 229.053 470.887 222.884 464.702V464.703ZM163.716 472.338L27.271 335.882C9.80751 318.377 0 294.659 0 269.932C0 245.205 9.80751 221.488 27.271 203.982L203.966 27.2732C221.469 9.80873 245.184 0.000488281 269.91 0.000488281C294.635 0.000488281 318.351 9.80873 335.854 27.2732C337.56 28.9798 338.519 31.2944 338.519 33.7078C338.519 36.1212 337.56 38.4355 335.854 40.1421C334.147 41.8483 331.833 42.8069 329.42 42.8069C327.007 42.8069 324.692 41.8483 322.986 40.1421C308.899 26.0853 289.811 18.1909 269.91 18.1909C250.009 18.1909 230.921 26.0853 216.834 40.1421L40.1389 216.852C26.0826 230.941 18.1887 250.03 18.1887 269.932C18.1887 289.834 26.0826 308.923 40.1389 323.012L176.584 459.469C178.29 461.176 179.249 463.49 179.249 465.904C179.249 468.317 178.29 470.632 176.584 472.338C175.74 473.184 174.737 473.855 173.632 474.313C172.528 474.77 171.344 475.005 170.149 475.003C168.954 475.005 167.77 474.77 166.666 474.312C165.562 473.855 164.56 473.184 163.716 472.337V472.338ZM465.75 182.919L378.316 95.4763C376.609 93.7698 375.651 91.4551 375.651 89.0417C375.651 86.6284 376.609 84.3137 378.316 82.6072C380.022 80.901 382.337 79.9426 384.75 79.9426C387.163 79.9426 389.477 80.901 391.184 82.6072L478.618 170.049C479.463 170.894 480.133 171.897 480.591 173.001C481.048 174.106 481.283 175.289 481.283 176.484C481.283 177.679 481.048 178.863 480.591 179.967C480.133 181.071 479.463 182.074 478.618 182.919C477.774 183.765 476.771 184.436 475.667 184.893C474.562 185.35 473.379 185.585 472.184 185.583C470.989 185.585 469.805 185.35 468.7 184.893C467.596 184.436 466.593 183.765 465.749 182.918L465.75 182.919Z" fill="#7F7F82"></path></svg>