<svg xmlns="http://www.w3.org/2000/svg" width="469" height="501" viewBox="0 0 469 501" fill="none"><path d="M379.848 133.585C375.587 132.903 371.289 132.48 366.976 132.318H366.981C305.424 130.018 292.555 103.185 293.923 66.4345L293.91 66.4454C294.489 51.0329 289.409 35.9411 279.63 24.0146C269.85 12.0881 256.046 4.15067 240.818 1.69843C224.274 -0.962459 207.35 3.05771 193.769 12.8746C180.188 22.6915 171.063 37.501 168.402 54.0455C165.872 69.7896 169.39 85.9078 178.25 99.1662C187.109 112.425 200.655 121.842 216.169 125.529L216.152 125.542C247.394 132.978 268.442 148.859 263.779 192.67C241.132 215.676 216.312 216.053 182.041 192.143C178.335 189.532 174.477 187.141 170.488 184.984V184.961C167.277 183.214 163.943 181.656 160.542 180.206C159.416 179.727 158.26 179.306 157.114 178.864C154.46 177.833 151.757 176.897 149.003 176.057C147.831 175.7 146.671 175.333 145.481 175.011C141.596 173.936 137.658 173.066 133.682 172.402C103.448 167.539 72.5209 174.885 47.7035 192.824C22.8861 210.763 6.21141 237.826 1.34752 268.059C0.662145 272.446 0.228054 276.868 0.0474698 281.303C-0.0145302 282.677 0.0275108 284.03 0.0145108 285.397C-0.0144892 288.443 0.0405196 291.467 0.24852 294.469C0.35452 295.969 0.500474 297.46 0.664474 298.951C0.984474 301.889 1.42446 304.789 1.96446 307.668C2.21746 309.012 2.44348 310.356 2.74248 311.684C3.51648 315.125 4.45946 318.506 5.54246 321.839C5.75646 322.501 5.9135 323.185 6.1425 323.839C7.54361 327.906 9.17078 331.891 11.0165 335.775C11.2935 336.356 11.6255 336.905 11.9095 337.481C13.5035 340.699 15.2368 343.832 17.1095 346.881C17.7025 347.842 18.3365 348.77 18.9575 349.714C20.7048 352.372 22.5562 354.954 24.5115 357.459C25.2115 358.359 25.9115 359.254 26.6435 360.131C28.8305 362.764 31.1435 365.284 33.5545 367.717C33.9765 368.144 34.3365 368.629 34.7675 369.048C34.7855 369.041 34.8035 369.032 34.8225 369.027C51.8051 385.666 73.534 396.623 97.0095 400.384C109.853 402.464 122.956 402.352 135.762 400.053C176.476 393.553 191.7 407.015 196.419 435.125C199.145 451.352 206.89 466.316 218.565 477.911C230.239 489.507 245.255 497.15 261.499 499.766C271.698 501.407 282.12 501.023 292.171 498.636C302.221 496.248 311.703 491.905 320.075 485.854C328.447 479.802 335.544 472.161 340.963 463.366C346.382 454.571 350.015 444.795 351.655 434.596C353.453 423.483 352.833 412.113 349.839 401.26C341.508 370.936 350.274 351.314 391.071 340.104H391.064C410.642 334.728 428.259 323.834 441.815 308.72C455.371 293.607 464.294 274.914 467.518 254.869C471.974 227.161 465.24 198.817 448.799 176.073C432.358 153.328 407.556 138.045 379.848 133.585Z" fill="#867D7D"></path></svg>